<mxfile host="app.diagrams.net" agent="Mozilla/5.0 (Windows NT 10.0; Win64; x64) AppleWebKit/537.36 (KHTML, like Gecko) Chrome/130.0.0.0 Safari/537.36" version="24.8.4">
  <diagram name="Page-1" id="PneIgPh_o8K-jdWuMsi1">
    <mxGraphModel dx="3718" dy="1572" grid="1" gridSize="10" guides="1" tooltips="1" connect="1" arrows="1" fold="1" page="1" pageScale="1" pageWidth="850" pageHeight="1100" math="0" shadow="0">
      <root>
        <mxCell id="0" />
        <mxCell id="1" parent="0" />
        <UserObject label="" plantUmlData="{&#xa;  &quot;data&quot;: &quot;@startuml\nactor Player\nactor AI as \&quot;Enemy\&quot;\n\nusecase \&quot;Patrolling\&quot; as UC1\nusecase \&quot;Seeing Player\&quot; as UC2\nusecase \&quot;Chasing Player\&quot; as UC3\nusecase \&quot;Hit Player\&quot; as UC4\nusecase \&quot;Player Dies\&quot; as UC5\n\nPlayer --&gt; UC4 : \&quot;Terkena hit\&quot;\nAI --&gt; UC1 : \&quot;Mulai berpatroli\&quot;\nAI --&gt; UC2 : \&quot;Melihat pemain\&quot;\nAI --&gt; UC3 : \&quot;Mengejar pemain\&quot;\nAI --&gt; UC4 : \&quot;Serang pemain\&quot;\nAI --&gt; UC5 : \&quot;Pemain mati\&quot;\nUC5 --&gt; UC1 : \&quot;Kembali ke berpatroli\&quot;\n\n@enduml\n&quot;,&#xa;  &quot;format&quot;: &quot;svg&quot;&#xa;}" id="AJvMjrhF3EflR_rfGmF5-1">
          <mxCell style="shape=image;noLabel=1;verticalAlign=top;aspect=fixed;imageAspect=0;image=data:image/svg+xml,PD94bWwgdmVyc2lvbj0iMS4wIiBlbmNvZGluZz0idXMtYXNjaWkiIHN0YW5kYWxvbmU9Im5vIj8+PHN2ZyB4bWxucz0iaHR0cDovL3d3dy53My5vcmcvMjAwMC9zdmciIHhtbG5zOnhsaW5rPSJodHRwOi8vd3d3LnczLm9yZy8xOTk5L3hsaW5rIiBjb250ZW50U3R5bGVUeXBlPSJ0ZXh0L2NzcyIgaGVpZ2h0PSIyOTdweCIgcHJlc2VydmVBc3BlY3RSYXRpbz0ibm9uZSIgc3R5bGU9IndpZHRoOjg3MnB4O2hlaWdodDoyOTdweDtiYWNrZ3JvdW5kOiNGRkZGRkY7IiB2ZXJzaW9uPSIxLjEiIHZpZXdCb3g9IjAgMCA4NzIgMjk3IiB3aWR0aD0iODcycHgiIHpvb21BbmRQYW49Im1hZ25pZnkiPjxkZWZzLz48Zz48IS0tZW50aXR5IFBsYXllci0tPjxnIGlkPSJlbGVtX1BsYXllciI+PGVsbGlwc2UgY3g9IjI3IiBjeT0iMTQiIGZpbGw9IiNGMUYxRjEiIHJ4PSI4IiByeT0iOCIgc3R5bGU9InN0cm9rZTojMTgxODE4O3N0cm9rZS13aWR0aDowLjU7Ii8+PHBhdGggZD0iTTI3LDIyIEwyNyw0OSBNMTQsMzAgTDQwLDMwIE0yNyw0OSBMMTQsNjQgTTI3LDQ5IEw0MCw2NCAiIGZpbGw9Im5vbmUiIHN0eWxlPSJzdHJva2U6IzE4MTgxODtzdHJva2Utd2lkdGg6MC41OyIvPjx0ZXh0IGZpbGw9IiMwMDAwMDAiIGZvbnQtZmFtaWx5PSJzYW5zLXNlcmlmIiBmb250LXNpemU9IjE0IiBsZW5ndGhBZGp1c3Q9InNwYWNpbmciIHRleHRMZW5ndGg9IjQyIiB4PSI2IiB5PSI3OC43MzQ0Ij5QbGF5ZXI8L3RleHQ+PC9nPjwhLS1lbnRpdHkgQUktLT48ZyBpZD0iZWxlbV9BSSI+PGVsbGlwc2UgY3g9IjQ2OCIgY3k9IjE0IiBmaWxsPSIjRjFGMUYxIiByeD0iOCIgcnk9IjgiIHN0eWxlPSJzdHJva2U6IzE4MTgxODtzdHJva2Utd2lkdGg6MC41OyIvPjxwYXRoIGQ9Ik00NjgsMjIgTDQ2OCw0OSBNNDU1LDMwIEw0ODEsMzAgTTQ2OCw0OSBMNDU1LDY0IE00NjgsNDkgTDQ4MSw2NCAiIGZpbGw9Im5vbmUiIHN0eWxlPSJzdHJva2U6IzE4MTgxODtzdHJva2Utd2lkdGg6MC41OyIvPjx0ZXh0IGZpbGw9IiMwMDAwMDAiIGZvbnQtZmFtaWx5PSJzYW5zLXNlcmlmIiBmb250LXNpemU9IjE0IiBsZW5ndGhBZGp1c3Q9InNwYWNpbmciIHRleHRMZW5ndGg9IjM2IiB4PSI0NTAiIHk9Ijc4LjczNDQiPkVuZW15PC90ZXh0PjwvZz48ZyBpZD0iZWxlbV9VQzEiPjxlbGxpcHNlIGN4PSIyODYuMDM2NyIgY3k9IjI3Ny42MDczIiBmaWxsPSIjRjFGMUYxIiByeD0iNTguNTM2NyIgcnk9IjE0LjEwNzMiIHN0eWxlPSJzdHJva2U6IzE4MTgxODtzdHJva2Utd2lkdGg6MC41OyIvPjx0ZXh0IGZpbGw9IiMwMDAwMDAiIGZvbnQtZmFtaWx5PSJzYW5zLXNlcmlmIiBmb250LXNpemU9IjE0IiBsZW5ndGhBZGp1c3Q9InNwYWNpbmciIHRleHRMZW5ndGg9IjcwIiB4PSIyNTEuMDM2NyIgeT0iMjgxLjM0OTUiPlBhdHJvbGxpbmc8L3RleHQ+PC9nPjxnIGlkPSJlbGVtX1VDMiI+PGVsbGlwc2UgY3g9IjQ2OC4xODM0IiBjeT0iMTcyLjIzNjciIGZpbGw9IiNGMUYxRjEiIHJ4PSI2Ni42ODM0IiByeT0iMTUuNzM2NyIgc3R5bGU9InN0cm9rZTojMTgxODE4O3N0cm9rZS13aWR0aDowLjU7Ii8+PHRleHQgZmlsbD0iIzAwMDAwMCIgZm9udC1mYW1pbHk9InNhbnMtc2VyaWYiIGZvbnQtc2l6ZT0iMTQiIGxlbmd0aEFkanVzdD0ic3BhY2luZyIgdGV4dExlbmd0aD0iOTEiIHg9IjQyMi42ODM0IiB5PSIxNzUuOTc4OSI+U2VlaW5nIFBsYXllcjwvdGV4dD48L2c+PGcgaWQ9ImVsZW1fVUMzIj48ZWxsaXBzZSBjeD0iNjM5LjA0NTYiIGN5PSIxNzEuODA5MSIgZmlsbD0iI0YxRjFGMSIgcng9IjY5LjU0NTYiIHJ5PSIxNi4zMDkxIiBzdHlsZT0ic3Ryb2tlOiMxODE4MTg7c3Ryb2tlLXdpZHRoOjAuNTsiLz48dGV4dCBmaWxsPSIjMDAwMDAwIiBmb250LWZhbWlseT0ic2Fucy1zZXJpZiIgZm9udC1zaXplPSIxNCIgbGVuZ3RoQWRqdXN0PSJzcGFjaW5nIiB0ZXh0TGVuZ3RoPSI5OCIgeD0iNTkwLjA0NTYiIHk9IjE3NS41NTEzIj5DaGFzaW5nIFBsYXllcjwvdGV4dD48L2c+PGcgaWQ9ImVsZW1fVUM0Ij48ZWxsaXBzZSBjeD0iNzguMDM2NyIgY3k9IjE3Mi4xMDczIiBmaWxsPSIjRjFGMUYxIiByeD0iNTguNTM2NyIgcnk9IjE0LjEwNzMiIHN0eWxlPSJzdHJva2U6IzE4MTgxODtzdHJva2Utd2lkdGg6MC41OyIvPjx0ZXh0IGZpbGw9IiMwMDAwMDAiIGZvbnQtZmFtaWx5PSJzYW5zLXNlcmlmIiBmb250LXNpemU9IjE0IiBsZW5ndGhBZGp1c3Q9InNwYWNpbmciIHRleHRMZW5ndGg9IjcwIiB4PSI0My4wMzY3IiB5PSIxNzUuODQ5NSI+SGl0IFBsYXllcjwvdGV4dD48L2c+PGcgaWQ9ImVsZW1fVUM1Ij48ZWxsaXBzZSBjeD0iODA1LjE2ODUiIGN5PSIxNzIuMTMzNyIgZmlsbD0iI0YxRjFGMSIgcng9IjYxLjE2ODUiIHJ5PSIxNC42MzM3IiBzdHlsZT0ic3Ryb2tlOiMxODE4MTg7c3Ryb2tlLXdpZHRoOjAuNTsiLz48dGV4dCBmaWxsPSIjMDAwMDAwIiBmb250LWZhbWlseT0ic2Fucy1zZXJpZiIgZm9udC1zaXplPSIxNCIgbGVuZ3RoQWRqdXN0PSJzcGFjaW5nIiB0ZXh0TGVuZ3RoPSI3NyIgeD0iNzY2LjY2ODUiIHk9IjE3NS44NzU5Ij5QbGF5ZXIgRGllczwvdGV4dD48L2c+PCEtLWxpbmsgUGxheWVyIHRvIFVDNC0tPjxnIGlkPSJsaW5rX1BsYXllcl9VQzQiPjxwYXRoIGQ9Ik0xOC42NCw4MC43MyBDMTcuMDksOTUuMjcgMTcuNjEsMTExLjc2IDI0LDEyNS41IEMzMC42MiwxMzkuNzMgMzkuMTEzNCwxNDcuNzkzMyA1MC45NTM0LDE1NS42MTMzICIgZmlsbD0ibm9uZSIgaWQ9IlBsYXllci10by1VQzQiIHN0eWxlPSJzdHJva2U6IzE4MTgxODtzdHJva2Utd2lkdGg6MS4wOyIvPjxwb2x5Z29uIGZpbGw9IiMxODE4MTgiIHBvaW50cz0iNTUuOTYsMTU4LjkyLDUwLjY1NDYsMTUwLjYyMjIsNTEuNzg3OSwxNTYuMTY0NCw0Ni4yNDU3LDE1Ny4yOTc3LDU1Ljk2LDE1OC45MiIgc3R5bGU9InN0cm9rZTojMTgxODE4O3N0cm9rZS13aWR0aDoxLjA7Ii8+PHRleHQgZmlsbD0iIzAwMDAwMCIgZm9udC1mYW1pbHk9InNhbnMtc2VyaWYiIGZvbnQtc2l6ZT0iMTMiIGxlbmd0aEFkanVzdD0ic3BhY2luZyIgdGV4dExlbmd0aD0iNzQiIHg9IjI1IiB5PSIxMjMuNzg5MSI+VGVya2VuYSBoaXQ8L3RleHQ+PC9nPjwhLS1saW5rIEFJIHRvIFVDMS0tPjxnIGlkPSJsaW5rX0FJX1VDMSI+PHBhdGggZD0iTTQ0OS44OSw0OC4wNSBDNDA5LjcyLDU4LjEyIDMxMy42OSw4OC40NyAyNzUsMTU1LjUgQzI1NC45NywxOTAuMjEgMjY4LjQ4MDQsMjM0LjQ4NzcgMjc3Ljk0MDQsMjU3Ljg3NzcgIiBmaWxsPSJub25lIiBpZD0iQUktdG8tVUMxIiBzdHlsZT0ic3Ryb2tlOiMxODE4MTg7c3Ryb2tlLXdpZHRoOjEuMDsiLz48cG9seWdvbiBmaWxsPSIjMTgxODE4IiBwb2ludHM9IjI4MC4xOSwyNjMuNDQsMjgwLjUyMzcsMjUzLjU5NjgsMjc4LjMxNTMsMjU4LjgwNDgsMjczLjEwNzMsMjU2LjU5NjMsMjgwLjE5LDI2My40NCIgc3R5bGU9InN0cm9rZTojMTgxODE4O3N0cm9rZS13aWR0aDoxLjA7Ii8+PHRleHQgZmlsbD0iIzAwMDAwMCIgZm9udC1mYW1pbHk9InNhbnMtc2VyaWYiIGZvbnQtc2l6ZT0iMTMiIGxlbmd0aEFkanVzdD0ic3BhY2luZyIgdGV4dExlbmd0aD0iMTA3IiB4PSIyNzYiIHk9IjE3Ny43ODkxIj5NdWxhaSBiZXJwYXRyb2xpPC90ZXh0PjwvZz48IS0tbGluayBBSSB0byBVQzItLT48ZyBpZD0ibGlua19BSV9VQzIiPjxwYXRoIGQ9Ik00NjgsODAuNzMgQzQ2OCwxMDUuOTMgNDY4LDEzMi4wMiA0NjgsMTUwLjM2ICIgZmlsbD0ibm9uZSIgaWQ9IkFJLXRvLVVDMiIgc3R5bGU9InN0cm9rZTojMTgxODE4O3N0cm9rZS13aWR0aDoxLjA7Ii8+PHBvbHlnb24gZmlsbD0iIzE4MTgxOCIgcG9pbnRzPSI0NjgsMTU2LjM2LDQ3MiwxNDcuMzYsNDY4LDE1MS4zNiw0NjQsMTQ3LjM2LDQ2OCwxNTYuMzYiIHN0eWxlPSJzdHJva2U6IzE4MTgxODtzdHJva2Utd2lkdGg6MS4wOyIvPjx0ZXh0IGZpbGw9IiMwMDAwMDAiIGZvbnQtZmFtaWx5PSJzYW5zLXNlcmlmIiBmb250LXNpemU9IjEzIiBsZW5ndGhBZGp1c3Q9InNwYWNpbmciIHRleHRMZW5ndGg9IjkzIiB4PSI0NjkiIHk9IjEyMy43ODkxIj5NZWxpaGF0IHBlbWFpbjwvdGV4dD48L2c+PCEtLWxpbmsgQUkgdG8gVUMzLS0+PGcgaWQ9ImxpbmtfQUlfVUMzIj48cGF0aCBkPSJNNDg2LjA2LDU0LjUgQzUwNy4wNyw2Ni45OCA1NDIuNTQsODguODUgNTcxLDExMC41IEM1ODkuODcsMTI0Ljg1IDYwNS42MTM2LDEzOS4wMjQzIDYxOS4wMjM2LDE1MS43MjQzICIgZmlsbD0ibm9uZSIgaWQ9IkFJLXRvLVVDMyIgc3R5bGU9InN0cm9rZTojMTgxODE4O3N0cm9rZS13aWR0aDoxLjA7Ii8+PHBvbHlnb24gZmlsbD0iIzE4MTgxOCIgcG9pbnRzPSI2MjMuMzgsMTU1Ljg1LDYxOS41OTU5LDE0Ni43NTcxLDYxOS43NDk3LDE1Mi40MTE5LDYxNC4wOTQ5LDE1Mi41NjU2LDYyMy4zOCwxNTUuODUiIHN0eWxlPSJzdHJva2U6IzE4MTgxODtzdHJva2Utd2lkdGg6MS4wOyIvPjx0ZXh0IGZpbGw9IiMwMDAwMDAiIGZvbnQtZmFtaWx5PSJzYW5zLXNlcmlmIiBmb250LXNpemU9IjEzIiBsZW5ndGhBZGp1c3Q9InNwYWNpbmciIHRleHRMZW5ndGg9IjEwMyIgeD0iNTg5IiB5PSIxMjMuNzg5MSI+TWVuZ2VqYXIgcGVtYWluPC90ZXh0PjwvZz48IS0tbGluayBBSSB0byBVQzQtLT48ZyBpZD0ibGlua19BSV9VQzQiPjxwYXRoIGQ9Ik00NDkuNzUsNDQuMTYgQzM5OC4wMyw0NS4zMyAyNDcuMzQsNTMuNzEgMTQwLDExMC41IEMxMTcuOTMsMTIyLjE3IDEwMi4xMTQ4LDEzOS40MzA1IDkxLjEyNDgsMTUzLjQzMDUgIiBmaWxsPSJub25lIiBpZD0iQUktdG8tVUM0IiBzdHlsZT0ic3Ryb2tlOiMxODE4MTg7c3Ryb2tlLXdpZHRoOjEuMDsiLz48cG9seWdvbiBmaWxsPSIjMTgxODE4IiBwb2ludHM9Ijg3LjQyLDE1OC4xNSw5Ni4xMjM2LDE1My41NDA2LDkwLjUwNzQsMTU0LjIxNyw4OS44MzA5LDE0OC42MDA4LDg3LjQyLDE1OC4xNSIgc3R5bGU9InN0cm9rZTojMTgxODE4O3N0cm9rZS13aWR0aDoxLjA7Ii8+PHRleHQgZmlsbD0iIzAwMDAwMCIgZm9udC1mYW1pbHk9InNhbnMtc2VyaWYiIGZvbnQtc2l6ZT0iMTMiIGxlbmd0aEFkanVzdD0ic3BhY2luZyIgdGV4dExlbmd0aD0iODkiIHg9IjE0MSIgeT0iMTIzLjc4OTEiPlNlcmFuZyBwZW1haW48L3RleHQ+PC9nPjwhLS1saW5rIEFJIHRvIFVDNS0tPjxnIGlkPSJsaW5rX0FJX1VDNSI+PHBhdGggZD0iTTQ4Ni4wNSw0Ny41NSBDNTI1LjkxLDU1LjcyIDYyMy45OCw3Ny43MSA3MDEsMTEwLjUgQzczMi4zMywxMjMuODQgNzYwLjkxNTIsMTQxLjQxMDYgNzgxLjE5NTIsMTU0LjgyMDYgIiBmaWxsPSJub25lIiBpZD0iQUktdG8tVUM1IiBzdHlsZT0ic3Ryb2tlOiMxODE4MTg7c3Ryb2tlLXdpZHRoOjEuMDsiLz48cG9seWdvbiBmaWxsPSIjMTgxODE4IiBwb2ludHM9Ijc4Ni4yLDE1OC4xMyw3ODAuODk5MSwxNDkuODI5NCw3ODIuMDI5MywxNTUuMzcyMiw3NzYuNDg2NiwxNTYuNTAyNSw3ODYuMiwxNTguMTMiIHN0eWxlPSJzdHJva2U6IzE4MTgxODtzdHJva2Utd2lkdGg6MS4wOyIvPjx0ZXh0IGZpbGw9IiMwMDAwMDAiIGZvbnQtZmFtaWx5PSJzYW5zLXNlcmlmIiBmb250LXNpemU9IjEzIiBsZW5ndGhBZGp1c3Q9InNwYWNpbmciIHRleHRMZW5ndGg9IjcyIiB4PSI3MzEiIHk9IjEyMy43ODkxIj5QZW1haW4gbWF0aTwvdGV4dD48L2c+PCEtLWxpbmsgVUM1IHRvIFVDMS0tPjxnIGlkPSJsaW5rX1VDNV9VQzEiPjxwYXRoIGQ9Ik03NjAuMywxODEuOTEgQzY2MS41OCwyMDEuNiA0MzEuOTA0MSwyNDcuNDA2NSAzMzQuODM0MSwyNjYuNzY2NSAiIGZpbGw9Im5vbmUiIGlkPSJVQzUtdG8tVUMxIiBzdHlsZT0ic3Ryb2tlOiMxODE4MTg7c3Ryb2tlLXdpZHRoOjEuMDsiLz48cG9seWdvbiBmaWxsPSIjMTgxODE4IiBwb2ludHM9IjMyOC45NSwyNjcuOTQsMzM4LjU1ODUsMjcwLjEwMjQsMzMzLjg1MzQsMjY2Ljk2MiwzMzYuOTkzOCwyNjIuMjU2OSwzMjguOTUsMjY3Ljk0IiBzdHlsZT0ic3Ryb2tlOiMxODE4MTg7c3Ryb2tlLXdpZHRoOjEuMDsiLz48dGV4dCBmaWxsPSIjMDAwMDAwIiBmb250LWZhbWlseT0ic2Fucy1zZXJpZiIgZm9udC1zaXplPSIxMyIgbGVuZ3RoQWRqdXN0PSJzcGFjaW5nIiB0ZXh0TGVuZ3RoPSIxNDEiIHg9IjU3NyIgeT0iMjMxLjc4OTEiPktlbWJhbGkga2UgYmVycGF0cm9saTwvdGV4dD48L2c+PCEtLVNSQz1bUFNfMTJpOG0zMFJXVXZ5WXpCdzNxcnF5MjM4NUhPSjF6MDdZMjVqU3J1c3M3ZG54cnN3bW9leHpsejNhbnlocjFXZzVOcDgybS1EdTFSR1dwdmd3aG5KWU93YjJJbzBCVEFQTllkS2pfUzBwdG9uTTRldHZfQ19Dd1M5dld0UmJzeUtseEZ2ajV3cURFUG9PeDhvUDQ3RU85MFNfMzdrRzNwOGpRT0k2ZEhIWlhPYXNka3VWWEdtbENhRGVtOTZkbUtibldtdTZ3ZjFyZkRqOVRLcmxENmlFVXFpb0UzUFJPVVFuMjJicXdDUWJGZWtra2I3dEdpTkdLZHBRM20wMF0tLT48L2c+PC9zdmc+;" parent="1" vertex="1">
            <mxGeometry x="14.68" y="30" width="822.09" height="280" as="geometry" />
          </mxCell>
        </UserObject>
        <UserObject label="" plantUmlData="{&#xa;  &quot;data&quot;: &quot;@startuml\nactor Player\nactor AI as \&quot;Enemy\&quot;\n\nusecase \&quot;Patrolling\&quot; as UC1\nusecase \&quot;Seeing Player\&quot; as UC2\nusecase \&quot;Chasing Player\&quot; as UC3\nusecase \&quot;Hit Player\&quot; as UC4\nusecase \&quot;Player Dies\&quot; as UC5\n\nPlayer --&gt; UC4 : \&quot;Damage taken\&quot;\nAI --&gt; UC1 : \&quot;Search around\&quot;\nAI --&gt; UC2 : \&quot;Seeing Player\&quot;\nAI --&gt; UC3 : \&quot;Chase Player\&quot;\nAI --&gt; UC4 : \&quot;Attack Player\&quot;\nAI --&gt; UC5 : \&quot;Player Died\&quot;\nUC5 --&gt; UC1 : \&quot;Back to Search around\&quot;\n\n@enduml\n&quot;,&#xa;  &quot;format&quot;: &quot;svg&quot;&#xa;}" id="AJvMjrhF3EflR_rfGmF5-3">
          <mxCell style="shape=image;noLabel=1;verticalAlign=top;aspect=fixed;imageAspect=0;image=data:image/svg+xml,PD94bWwgdmVyc2lvbj0iMS4wIiBlbmNvZGluZz0idXMtYXNjaWkiIHN0YW5kYWxvbmU9Im5vIj8+PHN2ZyB4bWxucz0iaHR0cDovL3d3dy53My5vcmcvMjAwMC9zdmciIHhtbG5zOnhsaW5rPSJodHRwOi8vd3d3LnczLm9yZy8xOTk5L3hsaW5rIiBjb250ZW50U3R5bGVUeXBlPSJ0ZXh0L2NzcyIgaGVpZ2h0PSIyOTdweCIgcHJlc2VydmVBc3BlY3RSYXRpbz0ibm9uZSIgc3R5bGU9IndpZHRoOjg2M3B4O2hlaWdodDoyOTdweDtiYWNrZ3JvdW5kOiNGRkZGRkY7IiB2ZXJzaW9uPSIxLjEiIHZpZXdCb3g9IjAgMCA4NjMgMjk3IiB3aWR0aD0iODYzcHgiIHpvb21BbmRQYW49Im1hZ25pZnkiPjxkZWZzLz48Zz48IS0tZW50aXR5IFBsYXllci0tPjxnIGlkPSJlbGVtX1BsYXllciI+PGVsbGlwc2UgY3g9IjI3IiBjeT0iMTQiIGZpbGw9IiNGMUYxRjEiIHJ4PSI4IiByeT0iOCIgc3R5bGU9InN0cm9rZTojMTgxODE4O3N0cm9rZS13aWR0aDowLjU7Ii8+PHBhdGggZD0iTTI3LDIyIEwyNyw0OSBNMTQsMzAgTDQwLDMwIE0yNyw0OSBMMTQsNjQgTTI3LDQ5IEw0MCw2NCAiIGZpbGw9Im5vbmUiIHN0eWxlPSJzdHJva2U6IzE4MTgxODtzdHJva2Utd2lkdGg6MC41OyIvPjx0ZXh0IGZpbGw9IiMwMDAwMDAiIGZvbnQtZmFtaWx5PSJzYW5zLXNlcmlmIiBmb250LXNpemU9IjE0IiBsZW5ndGhBZGp1c3Q9InNwYWNpbmciIHRleHRMZW5ndGg9IjQyIiB4PSI2IiB5PSI3OC43MzQ0Ij5QbGF5ZXI8L3RleHQ+PC9nPjwhLS1lbnRpdHkgQUktLT48ZyBpZD0iZWxlbV9BSSI+PGVsbGlwc2UgY3g9IjQ1OSIgY3k9IjE0IiBmaWxsPSIjRjFGMUYxIiByeD0iOCIgcnk9IjgiIHN0eWxlPSJzdHJva2U6IzE4MTgxODtzdHJva2Utd2lkdGg6MC41OyIvPjxwYXRoIGQ9Ik00NTksMjIgTDQ1OSw0OSBNNDQ2LDMwIEw0NzIsMzAgTTQ1OSw0OSBMNDQ2LDY0IE00NTksNDkgTDQ3Miw2NCAiIGZpbGw9Im5vbmUiIHN0eWxlPSJzdHJva2U6IzE4MTgxODtzdHJva2Utd2lkdGg6MC41OyIvPjx0ZXh0IGZpbGw9IiMwMDAwMDAiIGZvbnQtZmFtaWx5PSJzYW5zLXNlcmlmIiBmb250LXNpemU9IjE0IiBsZW5ndGhBZGp1c3Q9InNwYWNpbmciIHRleHRMZW5ndGg9IjM2IiB4PSI0NDEiIHk9Ijc4LjczNDQiPkVuZW15PC90ZXh0PjwvZz48ZyBpZD0iZWxlbV9VQzEiPjxlbGxpcHNlIGN4PSIyOTMuMDM2NyIgY3k9IjI3Ny42MDczIiBmaWxsPSIjRjFGMUYxIiByeD0iNTguNTM2NyIgcnk9IjE0LjEwNzMiIHN0eWxlPSJzdHJva2U6IzE4MTgxODtzdHJva2Utd2lkdGg6MC41OyIvPjx0ZXh0IGZpbGw9IiMwMDAwMDAiIGZvbnQtZmFtaWx5PSJzYW5zLXNlcmlmIiBmb250LXNpemU9IjE0IiBsZW5ndGhBZGp1c3Q9InNwYWNpbmciIHRleHRMZW5ndGg9IjcwIiB4PSIyNTguMDM2NyIgeT0iMjgxLjM0OTUiPlBhdHJvbGxpbmc8L3RleHQ+PC9nPjxnIGlkPSJlbGVtX1VDMiI+PGVsbGlwc2UgY3g9IjQ1OS4xODM0IiBjeT0iMTcyLjIzNjciIGZpbGw9IiNGMUYxRjEiIHJ4PSI2Ni42ODM0IiByeT0iMTUuNzM2NyIgc3R5bGU9InN0cm9rZTojMTgxODE4O3N0cm9rZS13aWR0aDowLjU7Ii8+PHRleHQgZmlsbD0iIzAwMDAwMCIgZm9udC1mYW1pbHk9InNhbnMtc2VyaWYiIGZvbnQtc2l6ZT0iMTQiIGxlbmd0aEFkanVzdD0ic3BhY2luZyIgdGV4dExlbmd0aD0iOTEiIHg9IjQxMy42ODM0IiB5PSIxNzUuOTc4OSI+U2VlaW5nIFBsYXllcjwvdGV4dD48L2c+PGcgaWQ9ImVsZW1fVUMzIj48ZWxsaXBzZSBjeD0iNjMwLjA0NTYiIGN5PSIxNzEuODA5MSIgZmlsbD0iI0YxRjFGMSIgcng9IjY5LjU0NTYiIHJ5PSIxNi4zMDkxIiBzdHlsZT0ic3Ryb2tlOiMxODE4MTg7c3Ryb2tlLXdpZHRoOjAuNTsiLz48dGV4dCBmaWxsPSIjMDAwMDAwIiBmb250LWZhbWlseT0ic2Fucy1zZXJpZiIgZm9udC1zaXplPSIxNCIgbGVuZ3RoQWRqdXN0PSJzcGFjaW5nIiB0ZXh0TGVuZ3RoPSI5OCIgeD0iNTgxLjA0NTYiIHk9IjE3NS41NTEzIj5DaGFzaW5nIFBsYXllcjwvdGV4dD48L2c+PGcgaWQ9ImVsZW1fVUM0Ij48ZWxsaXBzZSBjeD0iODEuMDM2NyIgY3k9IjE3Mi4xMDczIiBmaWxsPSIjRjFGMUYxIiByeD0iNTguNTM2NyIgcnk9IjE0LjEwNzMiIHN0eWxlPSJzdHJva2U6IzE4MTgxODtzdHJva2Utd2lkdGg6MC41OyIvPjx0ZXh0IGZpbGw9IiMwMDAwMDAiIGZvbnQtZmFtaWx5PSJzYW5zLXNlcmlmIiBmb250LXNpemU9IjE0IiBsZW5ndGhBZGp1c3Q9InNwYWNpbmciIHRleHRMZW5ndGg9IjcwIiB4PSI0Ni4wMzY3IiB5PSIxNzUuODQ5NSI+SGl0IFBsYXllcjwvdGV4dD48L2c+PGcgaWQ9ImVsZW1fVUM1Ij48ZWxsaXBzZSBjeD0iNzk2LjE2ODUiIGN5PSIxNzIuMTMzNyIgZmlsbD0iI0YxRjFGMSIgcng9IjYxLjE2ODUiIHJ5PSIxNC42MzM3IiBzdHlsZT0ic3Ryb2tlOiMxODE4MTg7c3Ryb2tlLXdpZHRoOjAuNTsiLz48dGV4dCBmaWxsPSIjMDAwMDAwIiBmb250LWZhbWlseT0ic2Fucy1zZXJpZiIgZm9udC1zaXplPSIxNCIgbGVuZ3RoQWRqdXN0PSJzcGFjaW5nIiB0ZXh0TGVuZ3RoPSI3NyIgeD0iNzU3LjY2ODUiIHk9IjE3NS44NzU5Ij5QbGF5ZXIgRGllczwvdGV4dD48L2c+PCEtLWxpbmsgUGxheWVyIHRvIFVDNC0tPjxnIGlkPSJsaW5rX1BsYXllcl9VQzQiPjxwYXRoIGQ9Ik0xOC40Niw4MC44MSBDMTYuODgsOTUuMzcgMTcuNDMsMTExLjg1IDI0LDEyNS41IEMzMC45NywxMzkuOTkgMzkuOTY0MiwxNDguMTMyNiA1Mi4zODQyLDE1NS44NTI2ICIgZmlsbD0ibm9uZSIgaWQ9IlBsYXllci10by1VQzQiIHN0eWxlPSJzdHJva2U6IzE4MTgxODtzdHJva2Utd2lkdGg6MS4wOyIvPjxwb2x5Z29uIGZpbGw9IiMxODE4MTgiIHBvaW50cz0iNTcuNDgsMTU5LjAyLDUxLjk0NzksMTUwLjg3MTYsNTMuMjMzNSwxNTYuMzgwNSw0Ny43MjQ3LDE1Ny42NjYsNTcuNDgsMTU5LjAyIiBzdHlsZT0ic3Ryb2tlOiMxODE4MTg7c3Ryb2tlLXdpZHRoOjEuMDsiLz48dGV4dCBmaWxsPSIjMDAwMDAwIiBmb250LWZhbWlseT0ic2Fucy1zZXJpZiIgZm9udC1zaXplPSIxMyIgbGVuZ3RoQWRqdXN0PSJzcGFjaW5nIiB0ZXh0TGVuZ3RoPSI4MiIgeD0iMjUiIHk9IjEyMy43ODkxIj5EYW1hZ2UgdGFrZW48L3RleHQ+PC9nPjwhLS1saW5rIEFJIHRvIFVDMS0tPjxnIGlkPSJsaW5rX0FJX1VDMSI+PHBhdGggZD0iTTQ0MC45Myw0OC45NyBDNDAzLjE5LDYwLjQ0IDMxNi42Niw5Mi43IDI4MiwxNTUuNSBDMjYyLjYzLDE5MC41OSAyNzUuODU0NSwyMzQuNjY0IDI4NS4xMDQ1LDI1Ny45NDQgIiBmaWxsPSJub25lIiBpZD0iQUktdG8tVUMxIiBzdHlsZT0ic3Ryb2tlOiMxODE4MTg7c3Ryb2tlLXdpZHRoOjEuMDsiLz48cG9seWdvbiBmaWxsPSIjMTgxODE4IiBwb2ludHM9IjI4Ny4zMiwyNjMuNTIsMjg3LjcxNCwyNTMuNjc5LDI4NS40NzM3LDI1OC44NzM0LDI4MC4yNzk0LDI1Ni42MzMxLDI4Ny4zMiwyNjMuNTIiIHN0eWxlPSJzdHJva2U6IzE4MTgxODtzdHJva2Utd2lkdGg6MS4wOyIvPjx0ZXh0IGZpbGw9IiMwMDAwMDAiIGZvbnQtZmFtaWx5PSJzYW5zLXNlcmlmIiBmb250LXNpemU9IjEzIiBsZW5ndGhBZGp1c3Q9InNwYWNpbmciIHRleHRMZW5ndGg9IjkxIiB4PSIyODMiIHk9IjE3Ny43ODkxIj5TZWFyY2ggYXJvdW5kPC90ZXh0PjwvZz48IS0tbGluayBBSSB0byBVQzItLT48ZyBpZD0ibGlua19BSV9VQzIiPjxwYXRoIGQ9Ik00NTksODAuNzMgQzQ1OSwxMDUuOTMgNDU5LDEzMi4wMiA0NTksMTUwLjM2ICIgZmlsbD0ibm9uZSIgaWQ9IkFJLXRvLVVDMiIgc3R5bGU9InN0cm9rZTojMTgxODE4O3N0cm9rZS13aWR0aDoxLjA7Ii8+PHBvbHlnb24gZmlsbD0iIzE4MTgxOCIgcG9pbnRzPSI0NTksMTU2LjM2LDQ2MywxNDcuMzYsNDU5LDE1MS4zNiw0NTUsMTQ3LjM2LDQ1OSwxNTYuMzYiIHN0eWxlPSJzdHJva2U6IzE4MTgxODtzdHJva2Utd2lkdGg6MS4wOyIvPjx0ZXh0IGZpbGw9IiMwMDAwMDAiIGZvbnQtZmFtaWx5PSJzYW5zLXNlcmlmIiBmb250LXNpemU9IjEzIiBsZW5ndGhBZGp1c3Q9InNwYWNpbmciIHRleHRMZW5ndGg9Ijg5IiB4PSI0NjAiIHk9IjEyMy43ODkxIj5TZWVpbmcgUGxheWVyPC90ZXh0PjwvZz48IS0tbGluayBBSSB0byBVQzMtLT48ZyBpZD0ibGlua19BSV9VQzMiPjxwYXRoIGQ9Ik00NzcuMjksNTUuNDUgQzQ5Ny40Nyw2OC4yNyA1MzAuNyw4OS45NiA1NTgsMTEwLjUgQzU3Ny40NCwxMjUuMTMgNTk0LjEyOTQsMTM5LjI2MzQgNjA4LjQ1OTQsMTUxLjgzMzQgIiBmaWxsPSJub25lIiBpZD0iQUktdG8tVUMzIiBzdHlsZT0ic3Ryb2tlOiMxODE4MTg7c3Ryb2tlLXdpZHRoOjEuMDsiLz48cG9seWdvbiBmaWxsPSIjMTgxODE4IiBwb2ludHM9IjYxMi45NywxNTUuNzksNjA4Ljg0MTksMTQ2Ljg0ODEsNjA5LjIxMTIsMTUyLjQ5MjgsNjAzLjU2NjQsMTUyLjg2MjIsNjEyLjk3LDE1NS43OSIgc3R5bGU9InN0cm9rZTojMTgxODE4O3N0cm9rZS13aWR0aDoxLjA7Ii8+PHRleHQgZmlsbD0iIzAwMDAwMCIgZm9udC1mYW1pbHk9InNhbnMtc2VyaWYiIGZvbnQtc2l6ZT0iMTMiIGxlbmd0aEFkanVzdD0ic3BhY2luZyIgdGV4dExlbmd0aD0iODMiIHg9IjU3NyIgeT0iMTIzLjc4OTEiPkNoYXNlIFBsYXllcjwvdGV4dD48L2c+PCEtLWxpbmsgQUkgdG8gVUM0LS0+PGcgaWQ9ImxpbmtfQUlfVUM0Ij48cGF0aCBkPSJNNDQwLjczLDQ0LjY0IEMzOTAuOTgsNDcuMDUgMjUwLjAxLDU4LjM1IDE0OCwxMTAuNSBDMTI0LjgzLDEyMi4zNCAxMDcuNDcxNywxMzkuNzI3NyA5NS4zNjE3LDE1My42ODc3ICIgZmlsbD0ibm9uZSIgaWQ9IkFJLXRvLVVDNCIgc3R5bGU9InN0cm9rZTojMTgxODE4O3N0cm9rZS13aWR0aDoxLjA7Ii8+PHBvbHlnb24gZmlsbD0iIzE4MTgxOCIgcG9pbnRzPSI5MS40MywxNTguMjIsMTAwLjM0OTEsMTU0LjA0MjcsOTQuNzA2NCwxNTQuNDQzMSw5NC4zMDYsMTQ4LjgwMDQsOTEuNDMsMTU4LjIyIiBzdHlsZT0ic3Ryb2tlOiMxODE4MTg7c3Ryb2tlLXdpZHRoOjEuMDsiLz48dGV4dCBmaWxsPSIjMDAwMDAwIiBmb250LWZhbWlseT0ic2Fucy1zZXJpZiIgZm9udC1zaXplPSIxMyIgbGVuZ3RoQWRqdXN0PSJzcGFjaW5nIiB0ZXh0TGVuZ3RoPSI4OCIgeD0iMTQ5IiB5PSIxMjMuNzg5MSI+QXR0YWNrIFBsYXllcjwvdGV4dD48L2c+PCEtLWxpbmsgQUkgdG8gVUM1LS0+PGcgaWQ9ImxpbmtfQUlfVUM1Ij48cGF0aCBkPSJNNDc3LjI3LDQ4Ljg3IEM1MTQuMDksNTguODggNTk5LjYzLDgzLjE0IDY2OSwxMTAuNSBDNzA1LjgxLDEyNS4wMSA3NDEuNTU3NywxNDIuNjM5MiA3NjYuNzU3NywxNTUuNjM5MiAiIGZpbGw9Im5vbmUiIGlkPSJBSS10by1VQzUiIHN0eWxlPSJzdHJva2U6IzE4MTgxODtzdHJva2Utd2lkdGg6MS4wOyIvPjxwb2x5Z29uIGZpbGw9IiMxODE4MTgiIHBvaW50cz0iNzcyLjA5LDE1OC4zOSw3NjUuOTI1NCwxNTAuNzA5LDc2Ny42NDY0LDE1Ni4wOTc3LDc2Mi4yNTc3LDE1Ny44MTg3LDc3Mi4wOSwxNTguMzkiIHN0eWxlPSJzdHJva2U6IzE4MTgxODtzdHJva2Utd2lkdGg6MS4wOyIvPjx0ZXh0IGZpbGw9IiMwMDAwMDAiIGZvbnQtZmFtaWx5PSJzYW5zLXNlcmlmIiBmb250LXNpemU9IjEzIiBsZW5ndGhBZGp1c3Q9InNwYWNpbmciIHRleHRMZW5ndGg9Ijc1IiB4PSI3MDEiIHk9IjEyMy43ODkxIj5QbGF5ZXIgRGllZDwvdGV4dD48L2c+PCEtLWxpbmsgVUM1IHRvIFVDMS0tPjxnIGlkPSJsaW5rX1VDNV9VQzEiPjxwYXRoIGQ9Ik03NTEuOCwxODIuMDkgQzY1NS45MSwyMDEuODMgNDM1LjY5NjksMjQ3LjE0MDcgMzQxLjM2NjksMjY2LjU1MDcgIiBmaWxsPSJub25lIiBpZD0iVUM1LXRvLVVDMSIgc3R5bGU9InN0cm9rZTojMTgxODE4O3N0cm9rZS13aWR0aDoxLjA7Ii8+PHBvbHlnb24gZmlsbD0iIzE4MTgxOCIgcG9pbnRzPSIzMzUuNDksMjY3Ljc2LDM0NS4xMTE1LDI2OS44NjQsMzQwLjM4NzQsMjY2Ljc1MjMsMzQzLjQ5OTEsMjYyLjAyODIsMzM1LjQ5LDI2Ny43NiIgc3R5bGU9InN0cm9rZTojMTgxODE4O3N0cm9rZS13aWR0aDoxLjA7Ii8+PHRleHQgZmlsbD0iIzAwMDAwMCIgZm9udC1mYW1pbHk9InNhbnMtc2VyaWYiIGZvbnQtc2l6ZT0iMTMiIGxlbmd0aEFkanVzdD0ic3BhY2luZyIgdGV4dExlbmd0aD0iMTQ2IiB4PSI1NzUiIHk9IjIzMS43ODkxIj5CYWNrIHRvIFNlYXJjaCBhcm91bmQ8L3RleHQ+PC9nPjwhLS1TUkM9W1BTLW4yZUNtNDBSV0ZLem5QN1RHd3pBWE9CTkdSZUJxME94cUs1NEpJRUJXc3pUZTgxNzdfRHliem1VNUxIZ1EyTFZJM0ZUMy1HNHFtNS1JdmZLcGpYV0lRMFh1V3JRaFFIZmFuenQwanFnM2pLSFJ4al9uZDBNa1VaR05wdUVfMXRrc014SHNwdzRVbzdXaTZGRFhhWnBTQ0RvMXJwWFpIczFuOUNkUHplVjNLY1NqZUhPemU1UUJfNE1PN0hYTjN2V3hUQ05mUWxsNnFiZUt1bktCWHc3cmpqMWJLUHNka3NPTGQ2bHowRzAwXS0tPjwvZz48L3N2Zz4=;" parent="1" vertex="1">
            <mxGeometry x="-10" y="60" width="863" height="297" as="geometry" />
          </mxCell>
        </UserObject>
        <UserObject label="" plantUmlData="{&#xa;  &quot;data&quot;: &quot;@startuml\nclass AI {\n    - patrolArea: String\n    - isChasing: Boolean\n    - health: int\n    + patrol(): void\n    + chasePlayer(): void\n    + hitPlayer(player: Player): void\n    + takeDamage(damage: int): void\n}\n\nclass Player {\n    - health: int\n    - position: String\n    + move(): void\n    + takeDamage(damage: int): void\n    + die(): void\n}\n\nclass PatrolArea {\n    - coordinates: String\n    + getCoordinates(): String\n}\n\nAI \&quot;1\&quot; --&gt; \&quot;1..*\&quot; PatrolArea : \&quot;Patrolling in\&quot;\nAI \&quot;1\&quot; --&gt; \&quot;1\&quot; Player : \&quot;Chase and Attack\&quot;\nPlayer \&quot;1\&quot; --&gt; \&quot;0..1\&quot; PatrolArea : \&quot;located at\&quot;\n\n@enduml\n&quot;,&#xa;  &quot;format&quot;: &quot;svg&quot;&#xa;}" id="AJvMjrhF3EflR_rfGmF5-5">
          <mxCell style="shape=image;noLabel=1;verticalAlign=top;aspect=fixed;imageAspect=0;image=data:image/svg+xml,PD94bWwgdmVyc2lvbj0iMS4wIiBlbmNvZGluZz0idXMtYXNjaWkiIHN0YW5kYWxvbmU9Im5vIj8+PHN2ZyB4bWxucz0iaHR0cDovL3d3dy53My5vcmcvMjAwMC9zdmciIHhtbG5zOnhsaW5rPSJodHRwOi8vd3d3LnczLm9yZy8xOTk5L3hsaW5rIiBjb250ZW50U3R5bGVUeXBlPSJ0ZXh0L2NzcyIgaGVpZ2h0PSI2MDhweCIgcHJlc2VydmVBc3BlY3RSYXRpbz0ibm9uZSIgc3R5bGU9IndpZHRoOjQzNnB4O2hlaWdodDo2MDhweDtiYWNrZ3JvdW5kOiNGRkZGRkY7IiB2ZXJzaW9uPSIxLjEiIHZpZXdCb3g9IjAgMCA0MzYgNjA4IiB3aWR0aD0iNDM2cHgiIHpvb21BbmRQYW49Im1hZ25pZnkiPjxkZWZzLz48Zz48IS0tY2xhc3MgQUktLT48ZyBpZD0iZWxlbV9BSSI+PHJlY3QgY29kZUxpbmU9IjEiIGZpbGw9IiNGMUYxRjEiIGhlaWdodD0iMTUyLjg5MDYiIGlkPSJBSSIgcng9IjIuNSIgcnk9IjIuNSIgc3R5bGU9InN0cm9rZTojMTgxODE4O3N0cm9rZS13aWR0aDowLjU7IiB3aWR0aD0iMjQ1IiB4PSI5NCIgeT0iOTcuNTgiLz48ZWxsaXBzZSBjeD0iMjA1LjI1IiBjeT0iMTEzLjU4IiBmaWxsPSIjQUREMUIyIiByeD0iMTEiIHJ5PSIxMSIgc3R5bGU9InN0cm9rZTojMTgxODE4O3N0cm9rZS13aWR0aDoxLjA7Ii8+PHBhdGggZD0iTTIwMi44NzUsMTE3LjgzIEwyMDIuODc1LDExOS41OCBMMjA3LjgxMjUsMTE5LjU4IEwyMDcuODEyNSwxMTcuODMgTDIwMi44NzUsMTE3LjgzIFogTTIwMy41NjI1LDExOC41MTc1IFEyMDMuNTYyNSwxMTguNTE3NSAyMDMuNTYyNSwxMDkuMzMgTDIwMS44MTI1LDEwOS4zMyBRMjAxLjgxMjUsMTA5LjMzIDIwMS44MTI1LDExOC41MTc1IEwyMDMuNTYyNSwxMTguNTE3NSBaIE0yMDcuMTI1LDExOC41MTc1IEwyMDguODc1LDExOC41MTc1IFEyMDguODc1LDExOC41MTc1IDIwOC44NzUsMTE1LjcwNSBMMjA3LjEyNSwxMTUuNzA1IFEyMDcuMTI1LDExNS43MDUgMjA3LjEyNSwxMTguNTE3NSBaIE0yMDcuMTI1LDEwOS4zMyBRMjA3LjEyNSwxMDkuMzMgMjA3LjEyNSwxMTIuMTQyNSBMMjA4Ljg3NSwxMTIuMTQyNSBRMjA4Ljg3NSwxMTIuMTQyNSAyMDguODc1LDEwOS4zMyBMMjA3LjEyNSwxMDkuMzMgWiBNMjAyLjg3NSwxMTAuMDE3NSBMMjA3LjgxMjUsMTEwLjAxNzUgTDIwNy44MTI1LDEwOC4yNjc1IEwyMDIuODc1LDEwOC4yNjc1IEwyMDIuODc1LDExMC4wMTc1IFogIiBmaWxsPSIjMDAwMDAwIi8+PHRleHQgZmlsbD0iIzAwMDAwMCIgZm9udC1mYW1pbHk9InNhbnMtc2VyaWYiIGZvbnQtc2l6ZT0iMTQiIGxlbmd0aEFkanVzdD0ic3BhY2luZyIgdGV4dExlbmd0aD0iMTQiIHg9IjIyNS43NSIgeT0iMTE5LjMyMjIiPkFJPC90ZXh0PjxsaW5lIHN0eWxlPSJzdHJva2U6IzE4MTgxODtzdHJva2Utd2lkdGg6MC41OyIgeDE9Ijk1IiB4Mj0iMzM4IiB5MT0iMTI5LjU4IiB5Mj0iMTI5LjU4Ii8+PHJlY3QgZmlsbD0ibm9uZSIgaGVpZ2h0PSI2IiBzdHlsZT0ic3Ryb2tlOiNDODI5MzA7c3Ryb2tlLXdpZHRoOjEuMDsiIHdpZHRoPSI2IiB4PSIxMDIiIHk9IjEzOS41NzIyIi8+PHRleHQgZmlsbD0iIzAwMDAwMCIgZm9udC1mYW1pbHk9InNhbnMtc2VyaWYiIGZvbnQtc2l6ZT0iMTQiIGxlbmd0aEFkanVzdD0ic3BhY2luZyIgdGV4dExlbmd0aD0iMTI2IiB4PSIxMTQiIHk9IjE0Ni44MTQ0Ij5wYXRyb2xBcmVhOiBTdHJpbmc8L3RleHQ+PHJlY3QgZmlsbD0ibm9uZSIgaGVpZ2h0PSI2IiBzdHlsZT0ic3Ryb2tlOiNDODI5MzA7c3Ryb2tlLXdpZHRoOjEuMDsiIHdpZHRoPSI2IiB4PSIxMDIiIHk9IjE1NC41NTY2Ii8+PHRleHQgZmlsbD0iIzAwMDAwMCIgZm9udC1mYW1pbHk9InNhbnMtc2VyaWYiIGZvbnQtc2l6ZT0iMTQiIGxlbmd0aEFkanVzdD0ic3BhY2luZyIgdGV4dExlbmd0aD0iMTI2IiB4PSIxMTQiIHk9IjE2MS43OTg4Ij5pc0NoYXNpbmc6IEJvb2xlYW48L3RleHQ+PHJlY3QgZmlsbD0ibm9uZSIgaGVpZ2h0PSI2IiBzdHlsZT0ic3Ryb2tlOiNDODI5MzA7c3Ryb2tlLXdpZHRoOjEuMDsiIHdpZHRoPSI2IiB4PSIxMDIiIHk9IjE2OS41NDA5Ii8+PHRleHQgZmlsbD0iIzAwMDAwMCIgZm9udC1mYW1pbHk9InNhbnMtc2VyaWYiIGZvbnQtc2l6ZT0iMTQiIGxlbmd0aEFkanVzdD0ic3BhY2luZyIgdGV4dExlbmd0aD0iNzciIHg9IjExNCIgeT0iMTc2Ljc4MzEiPmhlYWx0aDogaW50PC90ZXh0PjxsaW5lIHN0eWxlPSJzdHJva2U6IzE4MTgxODtzdHJva2Utd2lkdGg6MC41OyIgeDE9Ijk1IiB4Mj0iMzM4IiB5MT0iMTgyLjUzMzEiIHkyPSIxODIuNTMzMSIvPjxlbGxpcHNlIGN4PSIxMDUiIGN5PSIxOTUuNTI1MyIgZmlsbD0iIzg0QkU4NCIgcng9IjMiIHJ5PSIzIiBzdHlsZT0ic3Ryb2tlOiMwMzgwNDg7c3Ryb2tlLXdpZHRoOjEuMDsiLz48dGV4dCBmaWxsPSIjMDAwMDAwIiBmb250LWZhbWlseT0ic2Fucy1zZXJpZiIgZm9udC1zaXplPSIxNCIgbGVuZ3RoQWRqdXN0PSJzcGFjaW5nIiB0ZXh0TGVuZ3RoPSIxMDAiIHg9IjExNCIgeT0iMTk5Ljc2NzUiPnBhdHJvbCgpOiB2b2lkPC90ZXh0PjxlbGxpcHNlIGN4PSIxMDUiIGN5PSIyMTAuNTA5NyIgZmlsbD0iIzg0QkU4NCIgcng9IjMiIHJ5PSIzIiBzdHlsZT0ic3Ryb2tlOiMwMzgwNDg7c3Ryb2tlLXdpZHRoOjEuMDsiLz48dGV4dCBmaWxsPSIjMDAwMDAwIiBmb250LWZhbWlseT0ic2Fucy1zZXJpZiIgZm9udC1zaXplPSIxNCIgbGVuZ3RoQWRqdXN0PSJzcGFjaW5nIiB0ZXh0TGVuZ3RoPSIxMzUiIHg9IjExNCIgeT0iMjE0Ljc1MTkiPmNoYXNlUGxheWVyKCk6IHZvaWQ8L3RleHQ+PGVsbGlwc2UgY3g9IjEwNSIgY3k9IjIyNS40OTQxIiBmaWxsPSIjODRCRTg0IiByeD0iMyIgcnk9IjMiIHN0eWxlPSJzdHJva2U6IzAzODA0ODtzdHJva2Utd2lkdGg6MS4wOyIvPjx0ZXh0IGZpbGw9IiMwMDAwMDAiIGZvbnQtZmFtaWx5PSJzYW5zLXNlcmlmIiBmb250LXNpemU9IjE0IiBsZW5ndGhBZGp1c3Q9InNwYWNpbmciIHRleHRMZW5ndGg9IjIxOSIgeD0iMTE0IiB5PSIyMjkuNzM2MyI+aGl0UGxheWVyKHBsYXllcjogUGxheWVyKTogdm9pZDwvdGV4dD48ZWxsaXBzZSBjeD0iMTA1IiBjeT0iMjQwLjQ3ODQiIGZpbGw9IiM4NEJFODQiIHJ4PSIzIiByeT0iMyIgc3R5bGU9InN0cm9rZTojMDM4MDQ4O3N0cm9rZS13aWR0aDoxLjA7Ii8+PHRleHQgZmlsbD0iIzAwMDAwMCIgZm9udC1mYW1pbHk9InNhbnMtc2VyaWYiIGZvbnQtc2l6ZT0iMTQiIGxlbmd0aEFkanVzdD0ic3BhY2luZyIgdGV4dExlbmd0aD0iMjA3IiB4PSIxMTQiIHk9IjI0NC43MjA2Ij50YWtlRGFtYWdlKGRhbWFnZTogaW50KTogdm9pZDwvdGV4dD48L2c+PCEtLWNsYXNzIFBsYXllci0tPjxnIGlkPSJlbGVtX1BsYXllciI+PHJlY3QgY29kZUxpbmU9IjExIiBmaWxsPSIjRjFGMUYxIiBoZWlnaHQ9IjEyMi45MjE5IiBpZD0iUGxheWVyIiByeD0iMi41IiByeT0iMi41IiBzdHlsZT0ic3Ryb2tlOiMxODE4MTg7c3Ryb2tlLXdpZHRoOjAuNTsiIHdpZHRoPSIyMzMiIHg9IjciIHk9IjMyNS41OCIvPjxlbGxpcHNlIGN4PSI5OC4yNSIgY3k9IjM0MS41OCIgZmlsbD0iI0FERDFCMiIgcng9IjExIiByeT0iMTEiIHN0eWxlPSJzdHJva2U6IzE4MTgxODtzdHJva2Utd2lkdGg6MS4wOyIvPjxwYXRoIGQ9Ik05NS44NzUsMzQ1LjgzIEw5NS44NzUsMzQ3LjU4IEwxMDAuODEyNSwzNDcuNTggTDEwMC44MTI1LDM0NS44MyBMOTUuODc1LDM0NS44MyBaIE05Ni41NjI1LDM0Ni41MTc1IFE5Ni41NjI1LDM0Ni41MTc1IDk2LjU2MjUsMzM3LjMzIEw5NC44MTI1LDMzNy4zMyBROTQuODEyNSwzMzcuMzMgOTQuODEyNSwzNDYuNTE3NSBMOTYuNTYyNSwzNDYuNTE3NSBaIE0xMDAuMTI1LDM0Ni41MTc1IEwxMDEuODc1LDM0Ni41MTc1IFExMDEuODc1LDM0Ni41MTc1IDEwMS44NzUsMzQzLjcwNSBMMTAwLjEyNSwzNDMuNzA1IFExMDAuMTI1LDM0My43MDUgMTAwLjEyNSwzNDYuNTE3NSBaIE0xMDAuMTI1LDMzNy4zMyBRMTAwLjEyNSwzMzcuMzMgMTAwLjEyNSwzNDAuMTQyNSBMMTAxLjg3NSwzNDAuMTQyNSBRMTAxLjg3NSwzNDAuMTQyNSAxMDEuODc1LDMzNy4zMyBMMTAwLjEyNSwzMzcuMzMgWiBNOTUuODc1LDMzOC4wMTc1IEwxMDAuODEyNSwzMzguMDE3NSBMMTAwLjgxMjUsMzM2LjI2NzUgTDk1Ljg3NSwzMzYuMjY3NSBMOTUuODc1LDMzOC4wMTc1IFogIiBmaWxsPSIjMDAwMDAwIi8+PHRleHQgZmlsbD0iIzAwMDAwMCIgZm9udC1mYW1pbHk9InNhbnMtc2VyaWYiIGZvbnQtc2l6ZT0iMTQiIGxlbmd0aEFkanVzdD0ic3BhY2luZyIgdGV4dExlbmd0aD0iNDIiIHg9IjExOC43NSIgeT0iMzQ3LjMyMjIiPlBsYXllcjwvdGV4dD48bGluZSBzdHlsZT0ic3Ryb2tlOiMxODE4MTg7c3Ryb2tlLXdpZHRoOjAuNTsiIHgxPSI4IiB4Mj0iMjM5IiB5MT0iMzU3LjU4IiB5Mj0iMzU3LjU4Ii8+PHJlY3QgZmlsbD0ibm9uZSIgaGVpZ2h0PSI2IiBzdHlsZT0ic3Ryb2tlOiNDODI5MzA7c3Ryb2tlLXdpZHRoOjEuMDsiIHdpZHRoPSI2IiB4PSIxNSIgeT0iMzY3LjU3MjIiLz48dGV4dCBmaWxsPSIjMDAwMDAwIiBmb250LWZhbWlseT0ic2Fucy1zZXJpZiIgZm9udC1zaXplPSIxNCIgbGVuZ3RoQWRqdXN0PSJzcGFjaW5nIiB0ZXh0TGVuZ3RoPSI3NyIgeD0iMjciIHk9IjM3NC44MTQ0Ij5oZWFsdGg6IGludDwvdGV4dD48cmVjdCBmaWxsPSJub25lIiBoZWlnaHQ9IjYiIHN0eWxlPSJzdHJva2U6I0M4MjkzMDtzdHJva2Utd2lkdGg6MS4wOyIgd2lkdGg9IjYiIHg9IjE1IiB5PSIzODIuNTU2NiIvPjx0ZXh0IGZpbGw9IiMwMDAwMDAiIGZvbnQtZmFtaWx5PSJzYW5zLXNlcmlmIiBmb250LXNpemU9IjE0IiBsZW5ndGhBZGp1c3Q9InNwYWNpbmciIHRleHRMZW5ndGg9IjExMiIgeD0iMjciIHk9IjM4OS43OTg4Ij5wb3NpdGlvbjogU3RyaW5nPC90ZXh0PjxsaW5lIHN0eWxlPSJzdHJva2U6IzE4MTgxODtzdHJva2Utd2lkdGg6MC41OyIgeDE9IjgiIHgyPSIyMzkiIHkxPSIzOTUuNTQ4OCIgeTI9IjM5NS41NDg4Ii8+PGVsbGlwc2UgY3g9IjE4IiBjeT0iNDA4LjU0MDkiIGZpbGw9IiM4NEJFODQiIHJ4PSIzIiByeT0iMyIgc3R5bGU9InN0cm9rZTojMDM4MDQ4O3N0cm9rZS13aWR0aDoxLjA7Ii8+PHRleHQgZmlsbD0iIzAwMDAwMCIgZm9udC1mYW1pbHk9InNhbnMtc2VyaWYiIGZvbnQtc2l6ZT0iMTQiIGxlbmd0aEFkanVzdD0ic3BhY2luZyIgdGV4dExlbmd0aD0iODciIHg9IjI3IiB5PSI0MTIuNzgzMSI+bW92ZSgpOiB2b2lkPC90ZXh0PjxlbGxpcHNlIGN4PSIxOCIgY3k9IjQyMy41MjUzIiBmaWxsPSIjODRCRTg0IiByeD0iMyIgcnk9IjMiIHN0eWxlPSJzdHJva2U6IzAzODA0ODtzdHJva2Utd2lkdGg6MS4wOyIvPjx0ZXh0IGZpbGw9IiMwMDAwMDAiIGZvbnQtZmFtaWx5PSJzYW5zLXNlcmlmIiBmb250LXNpemU9IjE0IiBsZW5ndGhBZGp1c3Q9InNwYWNpbmciIHRleHRMZW5ndGg9IjIwNyIgeD0iMjciIHk9IjQyNy43Njc1Ij50YWtlRGFtYWdlKGRhbWFnZTogaW50KTogdm9pZDwvdGV4dD48ZWxsaXBzZSBjeD0iMTgiIGN5PSI0MzguNTA5NyIgZmlsbD0iIzg0QkU4NCIgcng9IjMiIHJ5PSIzIiBzdHlsZT0ic3Ryb2tlOiMwMzgwNDg7c3Ryb2tlLXdpZHRoOjEuMDsiLz48dGV4dCBmaWxsPSIjMDAwMDAwIiBmb250LWZhbWlseT0ic2Fucy1zZXJpZiIgZm9udC1zaXplPSIxNCIgbGVuZ3RoQWRqdXN0PSJzcGFjaW5nIiB0ZXh0TGVuZ3RoPSI3OSIgeD0iMjciIHk9IjQ0Mi43NTE5Ij5kaWUoKTogdm9pZDwvdGV4dD48L2c+PCEtLWNsYXNzIFBhdHJvbEFyZWEtLT48ZyBpZD0iZWxlbV9QYXRyb2xBcmVhIj48cmVjdCBjb2RlTGluZT0iMTkiIGZpbGw9IiNGMUYxRjEiIGhlaWdodD0iNzcuOTY4OCIgaWQ9IlBhdHJvbEFyZWEiIHJ4PSIyLjUiIHJ5PSIyLjUiIHN0eWxlPSJzdHJva2U6IzE4MTgxODtzdHJva2Utd2lkdGg6MC41OyIgd2lkdGg9IjE5NiIgeD0iMTE5LjUiIHk9IjUyMy41OCIvPjxlbGxpcHNlIGN4PSIxNzguMjUiIGN5PSI1MzkuNTgiIGZpbGw9IiNBREQxQjIiIHJ4PSIxMSIgcnk9IjExIiBzdHlsZT0ic3Ryb2tlOiMxODE4MTg7c3Ryb2tlLXdpZHRoOjEuMDsiLz48cGF0aCBkPSJNMTc1Ljg3NSw1NDMuODMgTDE3NS44NzUsNTQ1LjU4IEwxODAuODEyNSw1NDUuNTggTDE4MC44MTI1LDU0My44MyBMMTc1Ljg3NSw1NDMuODMgWiBNMTc2LjU2MjUsNTQ0LjUxNzUgUTE3Ni41NjI1LDU0NC41MTc1IDE3Ni41NjI1LDUzNS4zMyBMMTc0LjgxMjUsNTM1LjMzIFExNzQuODEyNSw1MzUuMzMgMTc0LjgxMjUsNTQ0LjUxNzUgTDE3Ni41NjI1LDU0NC41MTc1IFogTTE4MC4xMjUsNTQ0LjUxNzUgTDE4MS44NzUsNTQ0LjUxNzUgUTE4MS44NzUsNTQ0LjUxNzUgMTgxLjg3NSw1NDEuNzA1IEwxODAuMTI1LDU0MS43MDUgUTE4MC4xMjUsNTQxLjcwNSAxODAuMTI1LDU0NC41MTc1IFogTTE4MC4xMjUsNTM1LjMzIFExODAuMTI1LDUzNS4zMyAxODAuMTI1LDUzOC4xNDI1IEwxODEuODc1LDUzOC4xNDI1IFExODEuODc1LDUzOC4xNDI1IDE4MS44NzUsNTM1LjMzIEwxODAuMTI1LDUzNS4zMyBaIE0xNzUuODc1LDUzNi4wMTc1IEwxODAuODEyNSw1MzYuMDE3NSBMMTgwLjgxMjUsNTM0LjI2NzUgTDE3NS44NzUsNTM0LjI2NzUgTDE3NS44NzUsNTM2LjAxNzUgWiAiIGZpbGw9IiMwMDAwMDAiLz48dGV4dCBmaWxsPSIjMDAwMDAwIiBmb250LWZhbWlseT0ic2Fucy1zZXJpZiIgZm9udC1zaXplPSIxNCIgbGVuZ3RoQWRqdXN0PSJzcGFjaW5nIiB0ZXh0TGVuZ3RoPSI3MCIgeD0iMTk4Ljc1IiB5PSI1NDUuMzIyMiI+UGF0cm9sQXJlYTwvdGV4dD48bGluZSBzdHlsZT0ic3Ryb2tlOiMxODE4MTg7c3Ryb2tlLXdpZHRoOjAuNTsiIHgxPSIxMjAuNSIgeDI9IjMxNC41IiB5MT0iNTU1LjU4IiB5Mj0iNTU1LjU4Ii8+PHJlY3QgZmlsbD0ibm9uZSIgaGVpZ2h0PSI2IiBzdHlsZT0ic3Ryb2tlOiNDODI5MzA7c3Ryb2tlLXdpZHRoOjEuMDsiIHdpZHRoPSI2IiB4PSIxMjcuNSIgeT0iNTY1LjU3MjIiLz48dGV4dCBmaWxsPSIjMDAwMDAwIiBmb250LWZhbWlseT0ic2Fucy1zZXJpZiIgZm9udC1zaXplPSIxNCIgbGVuZ3RoQWRqdXN0PSJzcGFjaW5nIiB0ZXh0TGVuZ3RoPSIxMzMiIHg9IjEzOS41IiB5PSI1NzIuODE0NCI+Y29vcmRpbmF0ZXM6IFN0cmluZzwvdGV4dD48bGluZSBzdHlsZT0ic3Ryb2tlOiMxODE4MTg7c3Ryb2tlLXdpZHRoOjAuNTsiIHgxPSIxMjAuNSIgeDI9IjMxNC41IiB5MT0iNTc4LjU2NDQiIHkyPSI1NzguNTY0NCIvPjxlbGxpcHNlIGN4PSIxMzAuNSIgY3k9IjU5MS41NTY2IiBmaWxsPSIjODRCRTg0IiByeD0iMyIgcnk9IjMiIHN0eWxlPSJzdHJva2U6IzAzODA0ODtzdHJva2Utd2lkdGg6MS4wOyIvPjx0ZXh0IGZpbGw9IiMwMDAwMDAiIGZvbnQtZmFtaWx5PSJzYW5zLXNlcmlmIiBmb250LXNpemU9IjE0IiBsZW5ndGhBZGp1c3Q9InNwYWNpbmciIHRleHRMZW5ndGg9IjE3MCIgeD0iMTM5LjUiIHk9IjU5NS43OTg4Ij5nZXRDb29yZGluYXRlcygpOiBTdHJpbmc8L3RleHQ+PC9nPjwhLS1saW5rIEFJIHRvIFBhdHJvbEFyZWEtLT48ZyBpZD0ibGlua19BSV9QYXRyb2xBcmVhIj48cGF0aCBjb2RlTGluZT0iMjQiIGQ9Ik0yNzUuNjQsMjUwLjcgQzI4MC44NywyNjAuMzQgMjg1LjM2LDI3MC40MSAyODguNSwyODAuNTggQzMwNC42OSwzMzMuMDIgNDI5LjI0LDYgMjU2LjUsNDkzLjU4IEMyNTIuOTEsNTAzLjcxIDI1MC43NTg3LDUwOC44Mzg5IDI0NS40Mzg3LDUxOC4zMDg5ICIgZmlsbD0ibm9uZSIgaWQ9IkFJLXRvLVBhdHJvbEFyZWEiIHN0eWxlPSJzdHJva2U6IzE4MTgxODtzdHJva2Utd2lkdGg6MS4wOyIvPjxwb2x5Z29uIGZpbGw9IiMxODE4MTgiIHBvaW50cz0iMjQyLjUsNTIzLjU0LDI1MC4zOTU0LDUxNy42NTI1LDI0NC45NDg5LDUxOS4xODA4LDI0My40MjA2LDUxMy43MzQzLDI0Mi41LDUyMy41NCIgc3R5bGU9InN0cm9rZTojMTgxODE4O3N0cm9rZS13aWR0aDoxLjA7Ii8+PHRleHQgZmlsbD0iIzAwMDAwMCIgZm9udC1mYW1pbHk9InNhbnMtc2VyaWYiIGZvbnQtc2l6ZT0iMTMiIGxlbmd0aEFkanVzdD0ic3BhY2luZyIgdGV4dExlbmd0aD0iODYiIHg9IjMxNC41IiB5PSIzOTIuODY5MSI+UGF0cm9sbGluZyBpbjwvdGV4dD48dGV4dCBmaWxsPSIjMDAwMDAwIiBmb250LWZhbWlseT0ic2Fucy1zZXJpZiIgZm9udC1zaXplPSIxMyIgbGVuZ3RoQWRqdXN0PSJzcGFjaW5nIiB0ZXh0TGVuZ3RoPSI3IiB4PSIyNzMuNzY5MyIgeT0iMjcwLjY5ODkiPjE8L3RleHQ+PHRleHQgZmlsbD0iIzAwMDAwMCIgZm9udC1mYW1pbHk9InNhbnMtc2VyaWYiIGZvbnQtc2l6ZT0iMTMiIGxlbmd0aEFkanVzdD0ic3BhY2luZyIgdGV4dExlbmd0aD0iMjUiIHg9IjIxOS45NjA5IiB5PSI1MTMuOTU2NCI+MS4uKjwvdGV4dD48L2c+PCEtLWxpbmsgQUkgdG8gUGxheWVyLS0+PGcgaWQ9ImxpbmtfQUlfUGxheWVyIj48cGF0aCBjb2RlTGluZT0iMjUiIGQ9Ik0xODMuMTksMjUwLjY2IEMxNzIuMzUsMjc1LjI2IDE2Mi44ODA1LDI5Ni43Mjk5IDE1Mi41OTA1LDMyMC4wNjk5ICIgZmlsbD0ibm9uZSIgaWQ9IkFJLXRvLVBsYXllciIgc3R5bGU9InN0cm9rZTojMTgxODE4O3N0cm9rZS13aWR0aDoxLjA7Ii8+PHBvbHlnb24gZmlsbD0iIzE4MTgxOCIgcG9pbnRzPSIxNTAuMTcsMzI1LjU2LDE1Ny40NjA4LDMxOC45Mzg1LDE1Mi4xODcsMzIwLjk4NDksMTUwLjE0MDYsMzE1LjcxMTIsMTUwLjE3LDMyNS41NiIgc3R5bGU9InN0cm9rZTojMTgxODE4O3N0cm9rZS13aWR0aDoxLjA7Ii8+PHRleHQgZmlsbD0iIzAwMDAwMCIgZm9udC1mYW1pbHk9InNhbnMtc2VyaWYiIGZvbnQtc2l6ZT0iMTMiIGxlbmd0aEFkanVzdD0ic3BhY2luZyIgdGV4dExlbmd0aD0iMTEwIiB4PSIxNzEuNSIgeT0iMjkzLjg2OTEiPkNoYXNlIGFuZCBBdHRhY2s8L3RleHQ+PHRleHQgZmlsbD0iIzAwMDAwMCIgZm9udC1mYW1pbHk9InNhbnMtc2VyaWYiIGZvbnQtc2l6ZT0iMTMiIGxlbmd0aEFkanVzdD0ic3BhY2luZyIgdGV4dExlbmd0aD0iNyIgeD0iMTcyLjc5NjYiIHk9IjI3MC42NTUyIj4xPC90ZXh0Pjx0ZXh0IGZpbGw9IiMwMDAwMDAiIGZvbnQtZmFtaWx5PSJzYW5zLXNlcmlmIiBmb250LXNpemU9IjEzIiBsZW5ndGhBZGp1c3Q9InNwYWNpbmciIHRleHRMZW5ndGg9IjciIHg9IjE0Ni4yODM1IiB5PSIzMTUuNzc1NSI+MTwvdGV4dD48L2c+PCEtLWxpbmsgUGxheWVyIHRvIFBhdHJvbEFyZWEtLT48ZyBpZD0ibGlua19QbGF5ZXJfUGF0cm9sQXJlYSI+PHBhdGggY29kZUxpbmU9IjI2IiBkPSJNMTU2LjM4LDQ0OC43NiBDMTY5LjgyLDQ3My41OCAxODIuMTEyNiw0OTYuMjY0MSAxOTMuOTYyNiw1MTguMTQ0MSAiIGZpbGw9Im5vbmUiIGlkPSJQbGF5ZXItdG8tUGF0cm9sQXJlYSIgc3R5bGU9InN0cm9rZTojMTgxODE4O3N0cm9rZS13aWR0aDoxLjA7Ii8+PHBvbHlnb24gZmlsbD0iIzE4MTgxOCIgcG9pbnRzPSIxOTYuODIsNTIzLjQyLDE5Ni4wNTEyLDUxMy42MDEyLDE5NC40Mzg4LDUxOS4wMjM0LDE4OS4wMTY2LDUxNy40MTEsMTk2LjgyLDUyMy40MiIgc3R5bGU9InN0cm9rZTojMTgxODE4O3N0cm9rZS13aWR0aDoxLjA7Ii8+PHRleHQgZmlsbD0iIzAwMDAwMCIgZm9udC1mYW1pbHk9InNhbnMtc2VyaWYiIGZvbnQtc2l6ZT0iMTMiIGxlbmd0aEFkanVzdD0ic3BhY2luZyIgdGV4dExlbmd0aD0iNjciIHg9IjE4MC41IiB5PSI0OTEuODY5MSI+bG9jYXRlZCBhdDwvdGV4dD48dGV4dCBmaWxsPSIjMDAwMDAwIiBmb250LWZhbWlseT0ic2Fucy1zZXJpZiIgZm9udC1zaXplPSIxMyIgbGVuZ3RoQWRqdXN0PSJzcGFjaW5nIiB0ZXh0TGVuZ3RoPSI3IiB4PSIxNTIuNzc3MSIgeT0iNDY4Ljk4OTciPjE8L3RleHQ+PHRleHQgZmlsbD0iIzAwMDAwMCIgZm9udC1mYW1pbHk9InNhbnMtc2VyaWYiIGZvbnQtc2l6ZT0iMTMiIGxlbmd0aEFkanVzdD0ic3BhY2luZyIgdGV4dExlbmd0aD0iMjYiIHg9IjE2NC4zOTk3IiB5PSI1MTQuMDk1MiI+MC4uMTwvdGV4dD48L2c+PCEtLVNSQz1bYkw3MVFpQ20zQnRkQXVIRnNLaDJVbExYYUJNTnRHaHgwYzZCbkRJcklvbUFlLXBWZnBma2lrR3NOdUpxZGZ3VVBFQ245VVctdUx3MWwwUWtvNkZxdEtZZXVPajc1X2UyazdHT0M0Y2t1SUQ2Sm5XQUMxMXc3Wkl1bUJjb0FuaHJZdVBSVEJPS1pOSkpvVUN0WkhqYVM1cGdybm1xSkVjUW5OWWM4cndtZnpoY2EyUy1FSnpMUFY4Z0sta3lwalFTQjFZSk9uVjNRaHFUTkVBRHdsekNkM1pNQkxzQlhfYzZpbXlKdXNYVEdBUXE2VG1KN25SbThMUFdhUERfS05pNUpWQ2tpTXJWckx6ZjNNaEFsQjM1Y0xoSnJWQ0ttZGx5NzA0NjJucXBjaEVnMlpSSnR6ZnNsck50cU9XYjJ5Wmc1bTAwXS0tPjwvZz48L3N2Zz4=;" parent="1" vertex="1">
            <mxGeometry x="-780" y="210" width="436" height="608" as="geometry" />
          </mxCell>
        </UserObject>
        <UserObject label="" plantUmlData="{&#xa;  &quot;data&quot;: &quot;@startuml\nstart\n\n:Start Patrolling;\n:AI Scans the Area;\n:AI Sees the Player?;\nif (Player Seen?) then (yes)\n  :Chase the Player;\n  :AI Close to Player?;\n  if (Close to Player?) then (yes)\n    :AI Attacks Player;\n    :Player Takes Damage;\n    :Player Dead?;\n    if (Player Dead?) then (yes)\n      :Return to Patrolling;\n    else (no)\n      :Wait for a While;\n    endif\n  else (no)\n    :Continue Chasing;\n  endif\nelse (no)\n  :Continue Patrolling;\nendif\n\nstop\n@enduml\n&quot;,&#xa;  &quot;format&quot;: &quot;svg&quot;&#xa;}" id="AJvMjrhF3EflR_rfGmF5-6">
          <mxCell style="shape=image;noLabel=1;verticalAlign=top;aspect=fixed;imageAspect=0;image=data:image/svg+xml,PD94bWwgdmVyc2lvbj0iMS4wIiBlbmNvZGluZz0idXMtYXNjaWkiIHN0YW5kYWxvbmU9Im5vIj8+PHN2ZyB4bWxucz0iaHR0cDovL3d3dy53My5vcmcvMjAwMC9zdmciIHhtbG5zOnhsaW5rPSJodHRwOi8vd3d3LnczLm9yZy8xOTk5L3hsaW5rIiBjb250ZW50U3R5bGVUeXBlPSJ0ZXh0L2NzcyIgaGVpZ2h0PSI3NTBweCIgcHJlc2VydmVBc3BlY3RSYXRpbz0ibm9uZSIgc3R5bGU9IndpZHRoOjY1MnB4O2hlaWdodDo3NTBweDtiYWNrZ3JvdW5kOiNGRkZGRkY7IiB2ZXJzaW9uPSIxLjEiIHZpZXdCb3g9IjAgMCA2NTIgNzUwIiB3aWR0aD0iNjUycHgiIHpvb21BbmRQYW49Im1hZ25pZnkiPjxkZWZzLz48Zz48ZWxsaXBzZSBjeD0iNDI1Ljc1IiBjeT0iMjAiIGZpbGw9IiMyMjIyMjIiIHJ4PSIxMCIgcnk9IjEwIiBzdHlsZT0ic3Ryb2tlOiMyMjIyMjI7c3Ryb2tlLXdpZHRoOjEuMDsiLz48cmVjdCBmaWxsPSIjRjFGMUYxIiBoZWlnaHQ9IjMyLjg0MzgiIHJ4PSIxMi41IiByeT0iMTIuNSIgc3R5bGU9InN0cm9rZTojMTgxODE4O3N0cm9rZS13aWR0aDowLjU7IiB3aWR0aD0iMTI1IiB4PSIzNjMuMjUiIHk9IjUwIi8+PHRleHQgZmlsbD0iIzAwMDAwMCIgZm9udC1mYW1pbHk9InNhbnMtc2VyaWYiIGZvbnQtc2l6ZT0iMTIiIGxlbmd0aEFkanVzdD0ic3BhY2luZyIgdGV4dExlbmd0aD0iMTA1IiB4PSIzNzMuMjUiIHk9IjcxLjM0MzgiPlN0YXJ0IFBhdHJvbGxpbmc8L3RleHQ+PHJlY3QgZmlsbD0iI0YxRjFGMSIgaGVpZ2h0PSIzMi44NDM4IiByeD0iMTIuNSIgcnk9IjEyLjUiIHN0eWxlPSJzdHJva2U6IzE4MTgxODtzdHJva2Utd2lkdGg6MC41OyIgd2lkdGg9IjEzMyIgeD0iMzU5LjI1IiB5PSIxMDIuODQzOCIvPjx0ZXh0IGZpbGw9IiMwMDAwMDAiIGZvbnQtZmFtaWx5PSJzYW5zLXNlcmlmIiBmb250LXNpemU9IjEyIiBsZW5ndGhBZGp1c3Q9InNwYWNpbmciIHRleHRMZW5ndGg9IjExMyIgeD0iMzY5LjI1IiB5PSIxMjQuMTg3NSI+QUkgU2NhbnMgdGhlIEFyZWE8L3RleHQ+PHJlY3QgZmlsbD0iI0YxRjFGMSIgaGVpZ2h0PSIzMi44NDM4IiByeD0iMTIuNSIgcnk9IjEyLjUiIHN0eWxlPSJzdHJva2U6IzE4MTgxODtzdHJva2Utd2lkdGg6MC41OyIgd2lkdGg9IjE0NyIgeD0iMzUyLjI1IiB5PSIxNTUuNjg3NSIvPjx0ZXh0IGZpbGw9IiMwMDAwMDAiIGZvbnQtZmFtaWx5PSJzYW5zLXNlcmlmIiBmb250LXNpemU9IjEyIiBsZW5ndGhBZGp1c3Q9InNwYWNpbmciIHRleHRMZW5ndGg9IjEyNyIgeD0iMzYyLjI1IiB5PSIxNzcuMDMxMyI+QUkgU2VlcyB0aGUgUGxheWVyPzwvdGV4dD48cG9seWdvbiBmaWxsPSIjRjFGMUYxIiBwb2ludHM9IjM4OS43NSwyMDguNTMxMyw0NjEuNzUsMjA4LjUzMTMsNDczLjc1LDIyMC41MzEzLDQ2MS43NSwyMzIuNTMxMywzODkuNzUsMjMyLjUzMTMsMzc3Ljc1LDIyMC41MzEzLDM4OS43NSwyMDguNTMxMyIgc3R5bGU9InN0cm9rZTojMTgxODE4O3N0cm9rZS13aWR0aDowLjU7Ii8+PHRleHQgZmlsbD0iIzAwMDAwMCIgZm9udC1mYW1pbHk9InNhbnMtc2VyaWYiIGZvbnQtc2l6ZT0iMTEiIGxlbmd0aEFkanVzdD0ic3BhY2luZyIgdGV4dExlbmd0aD0iNzIiIHg9IjM4OS43NSIgeT0iMjI1LjA0MyI+UGxheWVyIFNlZW4/PC90ZXh0Pjx0ZXh0IGZpbGw9IiMwMDAwMDAiIGZvbnQtZmFtaWx5PSJzYW5zLXNlcmlmIiBmb250LXNpemU9IjExIiBsZW5ndGhBZGp1c3Q9InNwYWNpbmciIHRleHRMZW5ndGg9IjE4IiB4PSIzNTkuNzUiIHk9IjIxOS4xNTYzIj55ZXM8L3RleHQ+PHRleHQgZmlsbD0iIzAwMDAwMCIgZm9udC1mYW1pbHk9InNhbnMtc2VyaWYiIGZvbnQtc2l6ZT0iMTEiIGxlbmd0aEFkanVzdD0ic3BhY2luZyIgdGV4dExlbmd0aD0iMTIiIHg9IjQ3My43NSIgeT0iMjE5LjE1NjMiPm5vPC90ZXh0PjxyZWN0IGZpbGw9IiNGMUYxRjEiIGhlaWdodD0iMzIuODQzOCIgcng9IjEyLjUiIHJ5PSIxMi41IiBzdHlsZT0ic3Ryb2tlOiMxODE4MTg7c3Ryb2tlLXdpZHRoOjAuNTsiIHdpZHRoPSIxMjgiIHg9IjIxOS41IiB5PSIyNDIuNTMxMyIvPjx0ZXh0IGZpbGw9IiMwMDAwMDAiIGZvbnQtZmFtaWx5PSJzYW5zLXNlcmlmIiBmb250LXNpemU9IjEyIiBsZW5ndGhBZGp1c3Q9InNwYWNpbmciIHRleHRMZW5ndGg9IjEwOCIgeD0iMjI5LjUiIHk9IjI2My44NzUiPkNoYXNlIHRoZSBQbGF5ZXI8L3RleHQ+PHJlY3QgZmlsbD0iI0YxRjFGMSIgaGVpZ2h0PSIzMi44NDM4IiByeD0iMTIuNSIgcnk9IjEyLjUiIHN0eWxlPSJzdHJva2U6IzE4MTgxODtzdHJva2Utd2lkdGg6MC41OyIgd2lkdGg9IjE0NiIgeD0iMjEwLjUiIHk9IjI5NS4zNzUiLz48dGV4dCBmaWxsPSIjMDAwMDAwIiBmb250LWZhbWlseT0ic2Fucy1zZXJpZiIgZm9udC1zaXplPSIxMiIgbGVuZ3RoQWRqdXN0PSJzcGFjaW5nIiB0ZXh0TGVuZ3RoPSIxMjYiIHg9IjIyMC41IiB5PSIzMTYuNzE4OCI+QUkgQ2xvc2UgdG8gUGxheWVyPzwvdGV4dD48cG9seWdvbiBmaWxsPSIjRjFGMUYxIiBwb2ludHM9IjIzNS41LDM0OC4yMTg4LDMzMS41LDM0OC4yMTg4LDM0My41LDM2MC4yMTg4LDMzMS41LDM3Mi4yMTg4LDIzNS41LDM3Mi4yMTg4LDIyMy41LDM2MC4yMTg4LDIzNS41LDM0OC4yMTg4IiBzdHlsZT0ic3Ryb2tlOiMxODE4MTg7c3Ryb2tlLXdpZHRoOjAuNTsiLz48dGV4dCBmaWxsPSIjMDAwMDAwIiBmb250LWZhbWlseT0ic2Fucy1zZXJpZiIgZm9udC1zaXplPSIxMSIgbGVuZ3RoQWRqdXN0PSJzcGFjaW5nIiB0ZXh0TGVuZ3RoPSI5NiIgeD0iMjM1LjUiIHk9IjM2NC43MzA1Ij5DbG9zZSB0byBQbGF5ZXI/PC90ZXh0Pjx0ZXh0IGZpbGw9IiMwMDAwMDAiIGZvbnQtZmFtaWx5PSJzYW5zLXNlcmlmIiBmb250LXNpemU9IjExIiBsZW5ndGhBZGp1c3Q9InNwYWNpbmciIHRleHRMZW5ndGg9IjE4IiB4PSIyMDUuNSIgeT0iMzU4Ljg0MzgiPnllczwvdGV4dD48dGV4dCBmaWxsPSIjMDAwMDAwIiBmb250LWZhbWlseT0ic2Fucy1zZXJpZiIgZm9udC1zaXplPSIxMSIgbGVuZ3RoQWRqdXN0PSJzcGFjaW5nIiB0ZXh0TGVuZ3RoPSIxMiIgeD0iMzQzLjUiIHk9IjM1OC44NDM4Ij5ubzwvdGV4dD48cmVjdCBmaWxsPSIjRjFGMUYxIiBoZWlnaHQ9IjMyLjg0MzgiIHJ4PSIxMi41IiByeT0iMTIuNSIgc3R5bGU9InN0cm9rZTojMTgxODE4O3N0cm9rZS13aWR0aDowLjU7IiB3aWR0aD0iMTMxIiB4PSIxMDAuNSIgeT0iMzgyLjIxODgiLz48dGV4dCBmaWxsPSIjMDAwMDAwIiBmb250LWZhbWlseT0ic2Fucy1zZXJpZiIgZm9udC1zaXplPSIxMiIgbGVuZ3RoQWRqdXN0PSJzcGFjaW5nIiB0ZXh0TGVuZ3RoPSIxMTEiIHg9IjExMC41IiB5PSI0MDMuNTYyNSI+QUkgQXR0YWNrcyBQbGF5ZXI8L3RleHQ+PHJlY3QgZmlsbD0iI0YxRjFGMSIgaGVpZ2h0PSIzMi44NDM4IiByeD0iMTIuNSIgcnk9IjEyLjUiIHN0eWxlPSJzdHJva2U6IzE4MTgxODtzdHJva2Utd2lkdGg6MC41OyIgd2lkdGg9IjE0NyIgeD0iOTIuNSIgeT0iNDM1LjA2MjUiLz48dGV4dCBmaWxsPSIjMDAwMDAwIiBmb250LWZhbWlseT0ic2Fucy1zZXJpZiIgZm9udC1zaXplPSIxMiIgbGVuZ3RoQWRqdXN0PSJzcGFjaW5nIiB0ZXh0TGVuZ3RoPSIxMjciIHg9IjEwMi41IiB5PSI0NTYuNDA2MyI+UGxheWVyIFRha2VzIERhbWFnZTwvdGV4dD48cmVjdCBmaWxsPSIjRjFGMUYxIiBoZWlnaHQ9IjMyLjg0MzgiIHJ4PSIxMi41IiByeT0iMTIuNSIgc3R5bGU9InN0cm9rZTojMTgxODE4O3N0cm9rZS13aWR0aDowLjU7IiB3aWR0aD0iMTAyIiB4PSIxMTUiIHk9IjQ4Ny45MDYzIi8+PHRleHQgZmlsbD0iIzAwMDAwMCIgZm9udC1mYW1pbHk9InNhbnMtc2VyaWYiIGZvbnQtc2l6ZT0iMTIiIGxlbmd0aEFkanVzdD0ic3BhY2luZyIgdGV4dExlbmd0aD0iODIiIHg9IjEyNSIgeT0iNTA5LjI1Ij5QbGF5ZXIgRGVhZD88L3RleHQ+PHBvbHlnb24gZmlsbD0iI0YxRjFGMSIgcG9pbnRzPSIxMzAsNTQwLjc1LDIwMiw1NDAuNzUsMjE0LDU1Mi43NSwyMDIsNTY0Ljc1LDEzMCw1NjQuNzUsMTE4LDU1Mi43NSwxMzAsNTQwLjc1IiBzdHlsZT0ic3Ryb2tlOiMxODE4MTg7c3Ryb2tlLXdpZHRoOjAuNTsiLz48dGV4dCBmaWxsPSIjMDAwMDAwIiBmb250LWZhbWlseT0ic2Fucy1zZXJpZiIgZm9udC1zaXplPSIxMSIgbGVuZ3RoQWRqdXN0PSJzcGFjaW5nIiB0ZXh0TGVuZ3RoPSI3MiIgeD0iMTMwIiB5PSI1NTcuMjYxNyI+UGxheWVyIERlYWQ/PC90ZXh0Pjx0ZXh0IGZpbGw9IiMwMDAwMDAiIGZvbnQtZmFtaWx5PSJzYW5zLXNlcmlmIiBmb250LXNpemU9IjExIiBsZW5ndGhBZGp1c3Q9InNwYWNpbmciIHRleHRMZW5ndGg9IjE4IiB4PSIxMDAiIHk9IjU1MS4zNzUiPnllczwvdGV4dD48dGV4dCBmaWxsPSIjMDAwMDAwIiBmb250LWZhbWlseT0ic2Fucy1zZXJpZiIgZm9udC1zaXplPSIxMSIgbGVuZ3RoQWRqdXN0PSJzcGFjaW5nIiB0ZXh0TGVuZ3RoPSIxMiIgeD0iMjE0IiB5PSI1NTEuMzc1Ij5ubzwvdGV4dD48cmVjdCBmaWxsPSIjRjFGMUYxIiBoZWlnaHQ9IjMyLjg0MzgiIHJ4PSIxMi41IiByeT0iMTIuNSIgc3R5bGU9InN0cm9rZTojMTgxODE4O3N0cm9rZS13aWR0aDowLjU7IiB3aWR0aD0iMTUyIiB4PSIxMSIgeT0iNTc0Ljc1Ii8+PHRleHQgZmlsbD0iIzAwMDAwMCIgZm9udC1mYW1pbHk9InNhbnMtc2VyaWYiIGZvbnQtc2l6ZT0iMTIiIGxlbmd0aEFkanVzdD0ic3BhY2luZyIgdGV4dExlbmd0aD0iMTMyIiB4PSIyMSIgeT0iNTk2LjA5MzgiPlJldHVybiB0byBQYXRyb2xsaW5nPC90ZXh0PjxyZWN0IGZpbGw9IiNGMUYxRjEiIGhlaWdodD0iMzIuODQzOCIgcng9IjEyLjUiIHJ5PSIxMi41IiBzdHlsZT0ic3Ryb2tlOiMxODE4MTg7c3Ryb2tlLXdpZHRoOjAuNTsiIHdpZHRoPSIxMjQiIHg9IjE4MyIgeT0iNTc0Ljc1Ii8+PHRleHQgZmlsbD0iIzAwMDAwMCIgZm9udC1mYW1pbHk9InNhbnMtc2VyaWYiIGZvbnQtc2l6ZT0iMTIiIGxlbmd0aEFkanVzdD0ic3BhY2luZyIgdGV4dExlbmd0aD0iMTA0IiB4PSIxOTMiIHk9IjU5Ni4wOTM4Ij5XYWl0IGZvciBhIFdoaWxlPC90ZXh0Pjxwb2x5Z29uIGZpbGw9IiNGMUYxRjEiIHBvaW50cz0iMTY2LDYxMy41OTM4LDE3OCw2MjUuNTkzOCwxNjYsNjM3LjU5MzgsMTU0LDYyNS41OTM4LDE2Niw2MTMuNTkzOCIgc3R5bGU9InN0cm9rZTojMTgxODE4O3N0cm9rZS13aWR0aDowLjU7Ii8+PHJlY3QgZmlsbD0iI0YxRjFGMSIgaGVpZ2h0PSIzMi44NDM4IiByeD0iMTIuNSIgcnk9IjEyLjUiIHN0eWxlPSJzdHJva2U6IzE4MTgxODtzdHJva2Utd2lkdGg6MC41OyIgd2lkdGg9IjEyOCIgeD0iMzM3IiB5PSIzODIuMjE4OCIvPjx0ZXh0IGZpbGw9IiMwMDAwMDAiIGZvbnQtZmFtaWx5PSJzYW5zLXNlcmlmIiBmb250LXNpemU9IjEyIiBsZW5ndGhBZGp1c3Q9InNwYWNpbmciIHRleHRMZW5ndGg9IjEwOCIgeD0iMzQ3IiB5PSI0MDMuNTYyNSI+Q29udGludWUgQ2hhc2luZzwvdGV4dD48cG9seWdvbiBmaWxsPSIjRjFGMUYxIiBwb2ludHM9IjI4My41LDY0My41OTM4LDI5NS41LDY1NS41OTM4LDI4My41LDY2Ny41OTM4LDI3MS41LDY1NS41OTM4LDI4My41LDY0My41OTM4IiBzdHlsZT0ic3Ryb2tlOiMxODE4MTg7c3Ryb2tlLXdpZHRoOjAuNTsiLz48cmVjdCBmaWxsPSIjRjFGMUYxIiBoZWlnaHQ9IjMyLjg0MzgiIHJ4PSIxMi41IiByeT0iMTIuNSIgc3R5bGU9InN0cm9rZTojMTgxODE4O3N0cm9rZS13aWR0aDowLjU7IiB3aWR0aD0iMTQ2IiB4PSI0OTUiIHk9IjI0Mi41MzEzIi8+PHRleHQgZmlsbD0iIzAwMDAwMCIgZm9udC1mYW1pbHk9InNhbnMtc2VyaWYiIGZvbnQtc2l6ZT0iMTIiIGxlbmd0aEFkanVzdD0ic3BhY2luZyIgdGV4dExlbmd0aD0iMTI2IiB4PSI1MDUiIHk9IjI2My44NzUiPkNvbnRpbnVlIFBhdHJvbGxpbmc8L3RleHQ+PHBvbHlnb24gZmlsbD0iI0YxRjFGMSIgcG9pbnRzPSI0MjUuNzUsNjczLjU5MzgsNDM3Ljc1LDY4NS41OTM4LDQyNS43NSw2OTcuNTkzOCw0MTMuNzUsNjg1LjU5MzgsNDI1Ljc1LDY3My41OTM4IiBzdHlsZT0ic3Ryb2tlOiMxODE4MTg7c3Ryb2tlLXdpZHRoOjAuNTsiLz48ZWxsaXBzZSBjeD0iNDI1Ljc1IiBjeT0iNzI4LjU5MzgiIGZpbGw9Im5vbmUiIHJ4PSIxMSIgcnk9IjExIiBzdHlsZT0ic3Ryb2tlOiMyMjIyMjI7c3Ryb2tlLXdpZHRoOjEuMDsiLz48ZWxsaXBzZSBjeD0iNDI1Ljc1IiBjeT0iNzI4LjU5MzgiIGZpbGw9IiMyMjIyMjIiIHJ4PSI2IiByeT0iNiIgc3R5bGU9InN0cm9rZTojMjIyMjIyO3N0cm9rZS13aWR0aDoxLjA7Ii8+PGxpbmUgc3R5bGU9InN0cm9rZTojMTgxODE4O3N0cm9rZS13aWR0aDoxLjA7IiB4MT0iNDI1Ljc1IiB4Mj0iNDI1Ljc1IiB5MT0iMzAiIHkyPSI1MCIvPjxwb2x5Z29uIGZpbGw9IiMxODE4MTgiIHBvaW50cz0iNDIxLjc1LDQwLDQyNS43NSw1MCw0MjkuNzUsNDAsNDI1Ljc1LDQ0IiBzdHlsZT0ic3Ryb2tlOiMxODE4MTg7c3Ryb2tlLXdpZHRoOjEuMDsiLz48bGluZSBzdHlsZT0ic3Ryb2tlOiMxODE4MTg7c3Ryb2tlLXdpZHRoOjEuMDsiIHgxPSI0MjUuNzUiIHgyPSI0MjUuNzUiIHkxPSI4Mi44NDM4IiB5Mj0iMTAyLjg0MzgiLz48cG9seWdvbiBmaWxsPSIjMTgxODE4IiBwb2ludHM9IjQyMS43NSw5Mi44NDM4LDQyNS43NSwxMDIuODQzOCw0MjkuNzUsOTIuODQzOCw0MjUuNzUsOTYuODQzOCIgc3R5bGU9InN0cm9rZTojMTgxODE4O3N0cm9rZS13aWR0aDoxLjA7Ii8+PGxpbmUgc3R5bGU9InN0cm9rZTojMTgxODE4O3N0cm9rZS13aWR0aDoxLjA7IiB4MT0iNDI1Ljc1IiB4Mj0iNDI1Ljc1IiB5MT0iMTM1LjY4NzUiIHkyPSIxNTUuNjg3NSIvPjxwb2x5Z29uIGZpbGw9IiMxODE4MTgiIHBvaW50cz0iNDIxLjc1LDE0NS42ODc1LDQyNS43NSwxNTUuNjg3NSw0MjkuNzUsMTQ1LjY4NzUsNDI1Ljc1LDE0OS42ODc1IiBzdHlsZT0ic3Ryb2tlOiMxODE4MTg7c3Ryb2tlLXdpZHRoOjEuMDsiLz48bGluZSBzdHlsZT0ic3Ryb2tlOiMxODE4MTg7c3Ryb2tlLXdpZHRoOjEuMDsiIHgxPSIyODMuNSIgeDI9IjI4My41IiB5MT0iMjc1LjM3NSIgeTI9IjI5NS4zNzUiLz48cG9seWdvbiBmaWxsPSIjMTgxODE4IiBwb2ludHM9IjI3OS41LDI4NS4zNzUsMjgzLjUsMjk1LjM3NSwyODcuNSwyODUuMzc1LDI4My41LDI4OS4zNzUiIHN0eWxlPSJzdHJva2U6IzE4MTgxODtzdHJva2Utd2lkdGg6MS4wOyIvPjxsaW5lIHN0eWxlPSJzdHJva2U6IzE4MTgxODtzdHJva2Utd2lkdGg6MS4wOyIgeDE9IjE2NiIgeDI9IjE2NiIgeTE9IjQxNS4wNjI1IiB5Mj0iNDM1LjA2MjUiLz48cG9seWdvbiBmaWxsPSIjMTgxODE4IiBwb2ludHM9IjE2Miw0MjUuMDYyNSwxNjYsNDM1LjA2MjUsMTcwLDQyNS4wNjI1LDE2Niw0MjkuMDYyNSIgc3R5bGU9InN0cm9rZTojMTgxODE4O3N0cm9rZS13aWR0aDoxLjA7Ii8+PGxpbmUgc3R5bGU9InN0cm9rZTojMTgxODE4O3N0cm9rZS13aWR0aDoxLjA7IiB4MT0iMTY2IiB4Mj0iMTY2IiB5MT0iNDY3LjkwNjMiIHkyPSI0ODcuOTA2MyIvPjxwb2x5Z29uIGZpbGw9IiMxODE4MTgiIHBvaW50cz0iMTYyLDQ3Ny45MDYzLDE2Niw0ODcuOTA2MywxNzAsNDc3LjkwNjMsMTY2LDQ4MS45MDYzIiBzdHlsZT0ic3Ryb2tlOiMxODE4MTg7c3Ryb2tlLXdpZHRoOjEuMDsiLz48bGluZSBzdHlsZT0ic3Ryb2tlOiMxODE4MTg7c3Ryb2tlLXdpZHRoOjEuMDsiIHgxPSIxMTgiIHgyPSI4NyIgeTE9IjU1Mi43NSIgeTI9IjU1Mi43NSIvPjxsaW5lIHN0eWxlPSJzdHJva2U6IzE4MTgxODtzdHJva2Utd2lkdGg6MS4wOyIgeDE9Ijg3IiB4Mj0iODciIHkxPSI1NTIuNzUiIHkyPSI1NzQuNzUiLz48cG9seWdvbiBmaWxsPSIjMTgxODE4IiBwb2ludHM9IjgzLDU2NC43NSw4Nyw1NzQuNzUsOTEsNTY0Ljc1LDg3LDU2OC43NSIgc3R5bGU9InN0cm9rZTojMTgxODE4O3N0cm9rZS13aWR0aDoxLjA7Ii8+PGxpbmUgc3R5bGU9InN0cm9rZTojMTgxODE4O3N0cm9rZS13aWR0aDoxLjA7IiB4MT0iMjE0IiB4Mj0iMjQ1IiB5MT0iNTUyLjc1IiB5Mj0iNTUyLjc1Ii8+PGxpbmUgc3R5bGU9InN0cm9rZTojMTgxODE4O3N0cm9rZS13aWR0aDoxLjA7IiB4MT0iMjQ1IiB4Mj0iMjQ1IiB5MT0iNTUyLjc1IiB5Mj0iNTc0Ljc1Ii8+PHBvbHlnb24gZmlsbD0iIzE4MTgxOCIgcG9pbnRzPSIyNDEsNTY0Ljc1LDI0NSw1NzQuNzUsMjQ5LDU2NC43NSwyNDUsNTY4Ljc1IiBzdHlsZT0ic3Ryb2tlOiMxODE4MTg7c3Ryb2tlLXdpZHRoOjEuMDsiLz48bGluZSBzdHlsZT0ic3Ryb2tlOiMxODE4MTg7c3Ryb2tlLXdpZHRoOjEuMDsiIHgxPSI4NyIgeDI9Ijg3IiB5MT0iNjA3LjU5MzgiIHkyPSI2MjUuNTkzOCIvPjxsaW5lIHN0eWxlPSJzdHJva2U6IzE4MTgxODtzdHJva2Utd2lkdGg6MS4wOyIgeDE9Ijg3IiB4Mj0iMTU0IiB5MT0iNjI1LjU5MzgiIHkyPSI2MjUuNTkzOCIvPjxwb2x5Z29uIGZpbGw9IiMxODE4MTgiIHBvaW50cz0iMTQ0LDYyMS41OTM4LDE1NCw2MjUuNTkzOCwxNDQsNjI5LjU5MzgsMTQ4LDYyNS41OTM4IiBzdHlsZT0ic3Ryb2tlOiMxODE4MTg7c3Ryb2tlLXdpZHRoOjEuMDsiLz48bGluZSBzdHlsZT0ic3Ryb2tlOiMxODE4MTg7c3Ryb2tlLXdpZHRoOjEuMDsiIHgxPSIyNDUiIHgyPSIyNDUiIHkxPSI2MDcuNTkzOCIgeTI9IjYyNS41OTM4Ii8+PGxpbmUgc3R5bGU9InN0cm9rZTojMTgxODE4O3N0cm9rZS13aWR0aDoxLjA7IiB4MT0iMjQ1IiB4Mj0iMTc4IiB5MT0iNjI1LjU5MzgiIHkyPSI2MjUuNTkzOCIvPjxwb2x5Z29uIGZpbGw9IiMxODE4MTgiIHBvaW50cz0iMTg4LDYyMS41OTM4LDE3OCw2MjUuNTkzOCwxODgsNjI5LjU5MzgsMTg0LDYyNS41OTM4IiBzdHlsZT0ic3Ryb2tlOiMxODE4MTg7c3Ryb2tlLXdpZHRoOjEuMDsiLz48bGluZSBzdHlsZT0ic3Ryb2tlOiMxODE4MTg7c3Ryb2tlLXdpZHRoOjEuMDsiIHgxPSIxNjYiIHgyPSIxNjYiIHkxPSI1MjAuNzUiIHkyPSI1NDAuNzUiLz48cG9seWdvbiBmaWxsPSIjMTgxODE4IiBwb2ludHM9IjE2Miw1MzAuNzUsMTY2LDU0MC43NSwxNzAsNTMwLjc1LDE2Niw1MzQuNzUiIHN0eWxlPSJzdHJva2U6IzE4MTgxODtzdHJva2Utd2lkdGg6MS4wOyIvPjxsaW5lIHN0eWxlPSJzdHJva2U6IzE4MTgxODtzdHJva2Utd2lkdGg6MS4wOyIgeDE9IjIyMy41IiB4Mj0iMTY2IiB5MT0iMzYwLjIxODgiIHkyPSIzNjAuMjE4OCIvPjxsaW5lIHN0eWxlPSJzdHJva2U6IzE4MTgxODtzdHJva2Utd2lkdGg6MS4wOyIgeDE9IjE2NiIgeDI9IjE2NiIgeTE9IjM2MC4yMTg4IiB5Mj0iMzgyLjIxODgiLz48cG9seWdvbiBmaWxsPSIjMTgxODE4IiBwb2ludHM9IjE2MiwzNzIuMjE4OCwxNjYsMzgyLjIxODgsMTcwLDM3Mi4yMTg4LDE2NiwzNzYuMjE4OCIgc3R5bGU9InN0cm9rZTojMTgxODE4O3N0cm9rZS13aWR0aDoxLjA7Ii8+PGxpbmUgc3R5bGU9InN0cm9rZTojMTgxODE4O3N0cm9rZS13aWR0aDoxLjA7IiB4MT0iMzQzLjUiIHgyPSI0MDEiIHkxPSIzNjAuMjE4OCIgeTI9IjM2MC4yMTg4Ii8+PGxpbmUgc3R5bGU9InN0cm9rZTojMTgxODE4O3N0cm9rZS13aWR0aDoxLjA7IiB4MT0iNDAxIiB4Mj0iNDAxIiB5MT0iMzYwLjIxODgiIHkyPSIzODIuMjE4OCIvPjxwb2x5Z29uIGZpbGw9IiMxODE4MTgiIHBvaW50cz0iMzk3LDM3Mi4yMTg4LDQwMSwzODIuMjE4OCw0MDUsMzcyLjIxODgsNDAxLDM3Ni4yMTg4IiBzdHlsZT0ic3Ryb2tlOiMxODE4MTg7c3Ryb2tlLXdpZHRoOjEuMDsiLz48bGluZSBzdHlsZT0ic3Ryb2tlOiMxODE4MTg7c3Ryb2tlLXdpZHRoOjEuMDsiIHgxPSIxNjYiIHgyPSIxNjYiIHkxPSI2MzcuNTkzOCIgeTI9IjY1NS41OTM4Ii8+PGxpbmUgc3R5bGU9InN0cm9rZTojMTgxODE4O3N0cm9rZS13aWR0aDoxLjA7IiB4MT0iMTY2IiB4Mj0iMjcxLjUiIHkxPSI2NTUuNTkzOCIgeTI9IjY1NS41OTM4Ii8+PHBvbHlnb24gZmlsbD0iIzE4MTgxOCIgcG9pbnRzPSIyNjEuNSw2NTEuNTkzOCwyNzEuNSw2NTUuNTkzOCwyNjEuNSw2NTkuNTkzOCwyNjUuNSw2NTUuNTkzOCIgc3R5bGU9InN0cm9rZTojMTgxODE4O3N0cm9rZS13aWR0aDoxLjA7Ii8+PGxpbmUgc3R5bGU9InN0cm9rZTojMTgxODE4O3N0cm9rZS13aWR0aDoxLjA7IiB4MT0iNDAxIiB4Mj0iNDAxIiB5MT0iNDE1LjA2MjUiIHkyPSI2NTUuNTkzOCIvPjxsaW5lIHN0eWxlPSJzdHJva2U6IzE4MTgxODtzdHJva2Utd2lkdGg6MS4wOyIgeDE9IjQwMSIgeDI9IjI5NS41IiB5MT0iNjU1LjU5MzgiIHkyPSI2NTUuNTkzOCIvPjxwb2x5Z29uIGZpbGw9IiMxODE4MTgiIHBvaW50cz0iMzA1LjUsNjUxLjU5MzgsMjk1LjUsNjU1LjU5MzgsMzA1LjUsNjU5LjU5MzgsMzAxLjUsNjU1LjU5MzgiIHN0eWxlPSJzdHJva2U6IzE4MTgxODtzdHJva2Utd2lkdGg6MS4wOyIvPjxsaW5lIHN0eWxlPSJzdHJva2U6IzE4MTgxODtzdHJva2Utd2lkdGg6MS4wOyIgeDE9IjI4My41IiB4Mj0iMjgzLjUiIHkxPSIzMjguMjE4OCIgeTI9IjM0OC4yMTg4Ii8+PHBvbHlnb24gZmlsbD0iIzE4MTgxOCIgcG9pbnRzPSIyNzkuNSwzMzguMjE4OCwyODMuNSwzNDguMjE4OCwyODcuNSwzMzguMjE4OCwyODMuNSwzNDIuMjE4OCIgc3R5bGU9InN0cm9rZTojMTgxODE4O3N0cm9rZS13aWR0aDoxLjA7Ii8+PGxpbmUgc3R5bGU9InN0cm9rZTojMTgxODE4O3N0cm9rZS13aWR0aDoxLjA7IiB4MT0iMzc3Ljc1IiB4Mj0iMjgzLjUiIHkxPSIyMjAuNTMxMyIgeTI9IjIyMC41MzEzIi8+PGxpbmUgc3R5bGU9InN0cm9rZTojMTgxODE4O3N0cm9rZS13aWR0aDoxLjA7IiB4MT0iMjgzLjUiIHgyPSIyODMuNSIgeTE9IjIyMC41MzEzIiB5Mj0iMjQyLjUzMTMiLz48cG9seWdvbiBmaWxsPSIjMTgxODE4IiBwb2ludHM9IjI3OS41LDIzMi41MzEzLDI4My41LDI0Mi41MzEzLDI4Ny41LDIzMi41MzEzLDI4My41LDIzNi41MzEzIiBzdHlsZT0ic3Ryb2tlOiMxODE4MTg7c3Ryb2tlLXdpZHRoOjEuMDsiLz48bGluZSBzdHlsZT0ic3Ryb2tlOiMxODE4MTg7c3Ryb2tlLXdpZHRoOjEuMDsiIHgxPSI0NzMuNzUiIHgyPSI1NjgiIHkxPSIyMjAuNTMxMyIgeTI9IjIyMC41MzEzIi8+PGxpbmUgc3R5bGU9InN0cm9rZTojMTgxODE4O3N0cm9rZS13aWR0aDoxLjA7IiB4MT0iNTY4IiB4Mj0iNTY4IiB5MT0iMjIwLjUzMTMiIHkyPSIyNDIuNTMxMyIvPjxwb2x5Z29uIGZpbGw9IiMxODE4MTgiIHBvaW50cz0iNTY0LDIzMi41MzEzLDU2OCwyNDIuNTMxMyw1NzIsMjMyLjUzMTMsNTY4LDIzNi41MzEzIiBzdHlsZT0ic3Ryb2tlOiMxODE4MTg7c3Ryb2tlLXdpZHRoOjEuMDsiLz48bGluZSBzdHlsZT0ic3Ryb2tlOiMxODE4MTg7c3Ryb2tlLXdpZHRoOjEuMDsiIHgxPSIyODMuNSIgeDI9IjI4My41IiB5MT0iNjY3LjU5MzgiIHkyPSI2ODUuNTkzOCIvPjxsaW5lIHN0eWxlPSJzdHJva2U6IzE4MTgxODtzdHJva2Utd2lkdGg6MS4wOyIgeDE9IjI4My41IiB4Mj0iNDEzLjc1IiB5MT0iNjg1LjU5MzgiIHkyPSI2ODUuNTkzOCIvPjxwb2x5Z29uIGZpbGw9IiMxODE4MTgiIHBvaW50cz0iNDAzLjc1LDY4MS41OTM4LDQxMy43NSw2ODUuNTkzOCw0MDMuNzUsNjg5LjU5MzgsNDA3Ljc1LDY4NS41OTM4IiBzdHlsZT0ic3Ryb2tlOiMxODE4MTg7c3Ryb2tlLXdpZHRoOjEuMDsiLz48bGluZSBzdHlsZT0ic3Ryb2tlOiMxODE4MTg7c3Ryb2tlLXdpZHRoOjEuMDsiIHgxPSI1NjgiIHgyPSI1NjgiIHkxPSIyNzUuMzc1IiB5Mj0iNjg1LjU5MzgiLz48bGluZSBzdHlsZT0ic3Ryb2tlOiMxODE4MTg7c3Ryb2tlLXdpZHRoOjEuMDsiIHgxPSI1NjgiIHgyPSI0MzcuNzUiIHkxPSI2ODUuNTkzOCIgeTI9IjY4NS41OTM4Ii8+PHBvbHlnb24gZmlsbD0iIzE4MTgxOCIgcG9pbnRzPSI0NDcuNzUsNjgxLjU5MzgsNDM3Ljc1LDY4NS41OTM4LDQ0Ny43NSw2ODkuNTkzOCw0NDMuNzUsNjg1LjU5MzgiIHN0eWxlPSJzdHJva2U6IzE4MTgxODtzdHJva2Utd2lkdGg6MS4wOyIvPjxsaW5lIHN0eWxlPSJzdHJva2U6IzE4MTgxODtzdHJva2Utd2lkdGg6MS4wOyIgeDE9IjQyNS43NSIgeDI9IjQyNS43NSIgeTE9IjE4OC41MzEzIiB5Mj0iMjA4LjUzMTMiLz48cG9seWdvbiBmaWxsPSIjMTgxODE4IiBwb2ludHM9IjQyMS43NSwxOTguNTMxMyw0MjUuNzUsMjA4LjUzMTMsNDI5Ljc1LDE5OC41MzEzLDQyNS43NSwyMDIuNTMxMyIgc3R5bGU9InN0cm9rZTojMTgxODE4O3N0cm9rZS13aWR0aDoxLjA7Ii8+PGxpbmUgc3R5bGU9InN0cm9rZTojMTgxODE4O3N0cm9rZS13aWR0aDoxLjA7IiB4MT0iNDI1Ljc1IiB4Mj0iNDI1Ljc1IiB5MT0iNjk3LjU5MzgiIHkyPSI3MTcuNTkzOCIvPjxwb2x5Z29uIGZpbGw9IiMxODE4MTgiIHBvaW50cz0iNDIxLjc1LDcwNy41OTM4LDQyNS43NSw3MTcuNTkzOCw0MjkuNzUsNzA3LjU5MzgsNDI1Ljc1LDcxMS41OTM4IiBzdHlsZT0ic3Ryb2tlOiMxODE4MTg7c3Ryb2tlLXdpZHRoOjEuMDsiLz48IS0tU1JDPVtQUDJuM2k4bTM0SnRWOE43eVdsaks1TGJPUWkwWVRiZ05IZXJFMlduR18tVWZBYVdiMmRBa19GdlAyX2VIQWRvNGJfZUs5bXJIbEV6S2NMcFdha0Z4NDRjV2lPSFJlbWVlU3hXR2d3a2Ixd1hJOXllU2RzOENhRW5hM3llV0JBVHE1Q3NLYUtPYWJmWjh4VlY5ODJPalVVeGwzSlNZNjBfLW9tb3lBdDU1VVZHeU9XRmxERWxTWUdTd2VJb3JZbHpzbkFjcFlHbG5za0x4MzlIOFhDZzVjbV9yWGpnV1Q0d0dCWERzY254WUdTemdoc3pSMnNCdlhUMUZDc01jUW92eU1sQmpvVVZ5Y0FWUm0wMF0tLT48L2c+PC9zdmc+;" parent="1" vertex="1">
            <mxGeometry x="-662" y="100" width="652" height="750" as="geometry" />
          </mxCell>
        </UserObject>
        <UserObject label="" plantUmlData="{&#xa;  &quot;data&quot;: &quot;@startuml\nactor Player\nactor AI as \&quot;Enemy\&quot;\n\nPlayer -&gt; AI : \&quot;Move around (Player action)\&quot;\nAI -&gt; AI : \&quot;Patrolling\&quot;\nAI -&gt; AI : \&quot;Scan for Player\&quot;\nalt Player seen\n  AI -&gt; Player : \&quot;Detect Player\&quot;\n  AI -&gt; AI : \&quot;Start Chasing\&quot;\n  AI -&gt; Player : \&quot;Move towards Player\&quot;\n  alt Player in range\n    AI -&gt; Player : \&quot;Attack Player\&quot;\n    Player -&gt; Player : \&quot;Take Damage\&quot;\n    alt Player dies\n      AI -&gt; AI : \&quot;Return to Patrolling\&quot;\n    else\n      AI -&gt; AI : \&quot;Wait for a while\&quot;\n    end\n  else\n    AI -&gt; AI : \&quot;Continue Chasing\&quot;\n  end\nelse\n  AI -&gt; AI : \&quot;Continue Patrolling\&quot;\nend\n\n@enduml\n&quot;,&#xa;  &quot;format&quot;: &quot;svg&quot;&#xa;}" id="AJvMjrhF3EflR_rfGmF5-7">
          <mxCell style="shape=image;noLabel=1;verticalAlign=top;aspect=fixed;imageAspect=0;image=data:image/svg+xml,PD94bWwgdmVyc2lvbj0iMS4wIiBlbmNvZGluZz0idXMtYXNjaWkiIHN0YW5kYWxvbmU9Im5vIj8+PHN2ZyB4bWxucz0iaHR0cDovL3d3dy53My5vcmcvMjAwMC9zdmciIHhtbG5zOnhsaW5rPSJodHRwOi8vd3d3LnczLm9yZy8xOTk5L3hsaW5rIiBjb250ZW50U3R5bGVUeXBlPSJ0ZXh0L2NzcyIgaGVpZ2h0PSI3MTRweCIgcHJlc2VydmVBc3BlY3RSYXRpbz0ibm9uZSIgc3R5bGU9IndpZHRoOjQ3MHB4O2hlaWdodDo3MTRweDtiYWNrZ3JvdW5kOiNGRkZGRkY7IiB2ZXJzaW9uPSIxLjEiIHZpZXdCb3g9IjAgMCA0NzAgNzE0IiB3aWR0aD0iNDcwcHgiIHpvb21BbmRQYW49Im1hZ25pZnkiPjxkZWZzLz48Zz48cmVjdCBmaWxsPSJub25lIiBoZWlnaHQ9IjQxMC45Njg4IiBzdHlsZT0ic3Ryb2tlOiMwMDAwMDA7c3Ryb2tlLXdpZHRoOjEuNTsiIHdpZHRoPSI0NTMiIHg9IjEwIiB5PSIyMDYuNzI2NiIvPjxyZWN0IGZpbGw9Im5vbmUiIGhlaWdodD0iMjQxLjM5ODQiIHN0eWxlPSJzdHJva2U6IzAwMDAwMDtzdHJva2Utd2lkdGg6MS41OyIgd2lkdGg9IjQzMyIgeD0iMjAiIHk9IjMyNi4zODI4Ii8+PHJlY3QgZmlsbD0ibm9uZSIgaGVpZ2h0PSI5OS43NDIyIiBzdHlsZT0ic3Ryb2tlOiMwMDAwMDA7c3Ryb2tlLXdpZHRoOjEuNTsiIHdpZHRoPSIxOTgiIHg9IjI0NSIgeT0iNDE4LjEyNSIvPjxsaW5lIHN0eWxlPSJzdHJva2U6IzE4MTgxODtzdHJva2Utd2lkdGg6MC41O3N0cm9rZS1kYXNoYXJyYXk6NS4wLDUuMDsiIHgxPSI1NCIgeDI9IjU0IiB5MT0iNzkuOTg0NCIgeTI9IjYzNC42OTUzIi8+PGxpbmUgc3R5bGU9InN0cm9rZTojMTgxODE4O3N0cm9rZS13aWR0aDowLjU7c3Ryb2tlLWRhc2hhcnJheTo1LjAsNS4wOyIgeDE9IjI3NiIgeDI9IjI3NiIgeTE9Ijc5Ljk4NDQiIHkyPSI2MzQuNjk1MyIvPjx0ZXh0IGZpbGw9IiMwMDAwMDAiIGZvbnQtZmFtaWx5PSJzYW5zLXNlcmlmIiBmb250LXNpemU9IjE0IiBsZW5ndGhBZGp1c3Q9InNwYWNpbmciIHRleHRMZW5ndGg9IjQyIiB4PSIzMCIgeT0iNzguMjM0NCI+UGxheWVyPC90ZXh0PjxlbGxpcHNlIGN4PSI1NCIgY3k9IjEzLjUiIGZpbGw9IiNFMkUyRjAiIHJ4PSI4IiByeT0iOCIgc3R5bGU9InN0cm9rZTojMTgxODE4O3N0cm9rZS13aWR0aDowLjU7Ii8+PHBhdGggZD0iTTU0LDIxLjUgTDU0LDQ4LjUgTTQxLDI5LjUgTDY3LDI5LjUgTTU0LDQ4LjUgTDQxLDYzLjUgTTU0LDQ4LjUgTDY3LDYzLjUgIiBmaWxsPSJub25lIiBzdHlsZT0ic3Ryb2tlOiMxODE4MTg7c3Ryb2tlLXdpZHRoOjAuNTsiLz48dGV4dCBmaWxsPSIjMDAwMDAwIiBmb250LWZhbWlseT0ic2Fucy1zZXJpZiIgZm9udC1zaXplPSIxNCIgbGVuZ3RoQWRqdXN0PSJzcGFjaW5nIiB0ZXh0TGVuZ3RoPSI0MiIgeD0iMzAiIHk9IjY0Ni45Mjk3Ij5QbGF5ZXI8L3RleHQ+PGVsbGlwc2UgY3g9IjU0IiBjeT0iNjU3LjE3OTciIGZpbGw9IiNFMkUyRjAiIHJ4PSI4IiByeT0iOCIgc3R5bGU9InN0cm9rZTojMTgxODE4O3N0cm9rZS13aWR0aDowLjU7Ii8+PHBhdGggZD0iTTU0LDY2NS4xNzk3IEw1NCw2OTIuMTc5NyBNNDEsNjczLjE3OTcgTDY3LDY3My4xNzk3IE01NCw2OTIuMTc5NyBMNDEsNzA3LjE3OTcgTTU0LDY5Mi4xNzk3IEw2Nyw3MDcuMTc5NyAiIGZpbGw9Im5vbmUiIHN0eWxlPSJzdHJva2U6IzE4MTgxODtzdHJva2Utd2lkdGg6MC41OyIvPjx0ZXh0IGZpbGw9IiMwMDAwMDAiIGZvbnQtZmFtaWx5PSJzYW5zLXNlcmlmIiBmb250LXNpemU9IjE0IiBsZW5ndGhBZGp1c3Q9InNwYWNpbmciIHRleHRMZW5ndGg9IjM2IiB4PSIyNTUiIHk9Ijc4LjIzNDQiPkVuZW15PC90ZXh0PjxlbGxpcHNlIGN4PSIyNzYiIGN5PSIxMy41IiBmaWxsPSIjRTJFMkYwIiByeD0iOCIgcnk9IjgiIHN0eWxlPSJzdHJva2U6IzE4MTgxODtzdHJva2Utd2lkdGg6MC41OyIvPjxwYXRoIGQ9Ik0yNzYsMjEuNSBMMjc2LDQ4LjUgTTI2MywyOS41IEwyODksMjkuNSBNMjc2LDQ4LjUgTDI2Myw2My41IE0yNzYsNDguNSBMMjg5LDYzLjUgIiBmaWxsPSJub25lIiBzdHlsZT0ic3Ryb2tlOiMxODE4MTg7c3Ryb2tlLXdpZHRoOjAuNTsiLz48dGV4dCBmaWxsPSIjMDAwMDAwIiBmb250LWZhbWlseT0ic2Fucy1zZXJpZiIgZm9udC1zaXplPSIxNCIgbGVuZ3RoQWRqdXN0PSJzcGFjaW5nIiB0ZXh0TGVuZ3RoPSIzNiIgeD0iMjU1IiB5PSI2NDYuOTI5NyI+RW5lbXk8L3RleHQ+PGVsbGlwc2UgY3g9IjI3NiIgY3k9IjY1Ny4xNzk3IiBmaWxsPSIjRTJFMkYwIiByeD0iOCIgcnk9IjgiIHN0eWxlPSJzdHJva2U6IzE4MTgxODtzdHJva2Utd2lkdGg6MC41OyIvPjxwYXRoIGQ9Ik0yNzYsNjY1LjE3OTcgTDI3Niw2OTIuMTc5NyBNMjYzLDY3My4xNzk3IEwyODksNjczLjE3OTcgTTI3Niw2OTIuMTc5NyBMMjYzLDcwNy4xNzk3IE0yNzYsNjkyLjE3OTcgTDI4OSw3MDcuMTc5NyAiIGZpbGw9Im5vbmUiIHN0eWxlPSJzdHJva2U6IzE4MTgxODtzdHJva2Utd2lkdGg6MC41OyIvPjxwb2x5Z29uIGZpbGw9IiMxODE4MTgiIHBvaW50cz0iMjY0LDEwNS44OTg0LDI3NCwxMDkuODk4NCwyNjQsMTEzLjg5ODQsMjY4LDEwOS44OTg0IiBzdHlsZT0ic3Ryb2tlOiMxODE4MTg7c3Ryb2tlLXdpZHRoOjEuMDsiLz48bGluZSBzdHlsZT0ic3Ryb2tlOiMxODE4MTg7c3Ryb2tlLXdpZHRoOjEuMDsiIHgxPSI1NCIgeDI9IjI3MCIgeTE9IjEwOS44OTg0IiB5Mj0iMTA5Ljg5ODQiLz48dGV4dCBmaWxsPSIjMDAwMDAwIiBmb250LWZhbWlseT0ic2Fucy1zZXJpZiIgZm9udC1zaXplPSIxMyIgbGVuZ3RoQWRqdXN0PSJzcGFjaW5nIiB0ZXh0TGVuZ3RoPSIxOTgiIHg9IjYxIiB5PSIxMDYuMjczNCI+Ik1vdmUgYXJvdW5kIChQbGF5ZXIgYWN0aW9uKSI8L3RleHQ+PGxpbmUgc3R5bGU9InN0cm9rZTojMTgxODE4O3N0cm9rZS13aWR0aDoxLjA7IiB4MT0iMjc2IiB4Mj0iMzE4IiB5MT0iMTM3LjgxMjUiIHkyPSIxMzcuODEyNSIvPjxsaW5lIHN0eWxlPSJzdHJva2U6IzE4MTgxODtzdHJva2Utd2lkdGg6MS4wOyIgeDE9IjMxOCIgeDI9IjMxOCIgeTE9IjEzNy44MTI1IiB5Mj0iMTUwLjgxMjUiLz48bGluZSBzdHlsZT0ic3Ryb2tlOiMxODE4MTg7c3Ryb2tlLXdpZHRoOjEuMDsiIHgxPSIyNzciIHgyPSIzMTgiIHkxPSIxNTAuODEyNSIgeTI9IjE1MC44MTI1Ii8+PHBvbHlnb24gZmlsbD0iIzE4MTgxOCIgcG9pbnRzPSIyODcsMTQ2LjgxMjUsMjc3LDE1MC44MTI1LDI4NywxNTQuODEyNSwyODMsMTUwLjgxMjUiIHN0eWxlPSJzdHJva2U6IzE4MTgxODtzdHJva2Utd2lkdGg6MS4wOyIvPjx0ZXh0IGZpbGw9IiMwMDAwMDAiIGZvbnQtZmFtaWx5PSJzYW5zLXNlcmlmIiBmb250LXNpemU9IjEzIiBsZW5ndGhBZGp1c3Q9InNwYWNpbmciIHRleHRMZW5ndGg9IjgwIiB4PSIyODMiIHk9IjEzNC4xODc1Ij4iUGF0cm9sbGluZyI8L3RleHQ+PGxpbmUgc3R5bGU9InN0cm9rZTojMTgxODE4O3N0cm9rZS13aWR0aDoxLjA7IiB4MT0iMjc2IiB4Mj0iMzE4IiB5MT0iMTc4LjcyNjYiIHkyPSIxNzguNzI2NiIvPjxsaW5lIHN0eWxlPSJzdHJva2U6IzE4MTgxODtzdHJva2Utd2lkdGg6MS4wOyIgeDE9IjMxOCIgeDI9IjMxOCIgeTE9IjE3OC43MjY2IiB5Mj0iMTkxLjcyNjYiLz48bGluZSBzdHlsZT0ic3Ryb2tlOiMxODE4MTg7c3Ryb2tlLXdpZHRoOjEuMDsiIHgxPSIyNzciIHgyPSIzMTgiIHkxPSIxOTEuNzI2NiIgeTI9IjE5MS43MjY2Ii8+PHBvbHlnb24gZmlsbD0iIzE4MTgxOCIgcG9pbnRzPSIyODcsMTg3LjcyNjYsMjc3LDE5MS43MjY2LDI4NywxOTUuNzI2NiwyODMsMTkxLjcyNjYiIHN0eWxlPSJzdHJva2U6IzE4MTgxODtzdHJva2Utd2lkdGg6MS4wOyIvPjx0ZXh0IGZpbGw9IiMwMDAwMDAiIGZvbnQtZmFtaWx5PSJzYW5zLXNlcmlmIiBmb250LXNpemU9IjEzIiBsZW5ndGhBZGp1c3Q9InNwYWNpbmciIHRleHRMZW5ndGg9IjExNyIgeD0iMjgzIiB5PSIxNzUuMTAxNiI+IlNjYW4gZm9yIFBsYXllciI8L3RleHQ+PHBhdGggZD0iTTEwLDIwNi43MjY2IEw3NCwyMDYuNzI2NiBMNzQsMjEyLjY0MDYgTDY0LDIyMi42NDA2IEwxMCwyMjIuNjQwNiBMMTAsMjA2LjcyNjYgIiBmaWxsPSIjRUVFRUVFIiBzdHlsZT0ic3Ryb2tlOiMwMDAwMDA7c3Ryb2tlLXdpZHRoOjEuNTsiLz48cmVjdCBmaWxsPSJub25lIiBoZWlnaHQ9IjQxMC45Njg4IiBzdHlsZT0ic3Ryb2tlOiMwMDAwMDA7c3Ryb2tlLXdpZHRoOjEuNTsiIHdpZHRoPSI0NTMiIHg9IjEwIiB5PSIyMDYuNzI2NiIvPjx0ZXh0IGZpbGw9IiMwMDAwMDAiIGZvbnQtZmFtaWx5PSJzYW5zLXNlcmlmIiBmb250LXNpemU9IjEzIiBmb250LXdlaWdodD0iYm9sZCIgbGVuZ3RoQWRqdXN0PSJzcGFjaW5nIiB0ZXh0TGVuZ3RoPSIxOSIgeD0iMjUiIHk9IjIyMC4wMTU2Ij5hbHQ8L3RleHQ+PHRleHQgZmlsbD0iIzAwMDAwMCIgZm9udC1mYW1pbHk9InNhbnMtc2VyaWYiIGZvbnQtc2l6ZT0iMTEiIGZvbnQtd2VpZ2h0PSJib2xkIiBsZW5ndGhBZGp1c3Q9InNwYWNpbmciIHRleHRMZW5ndGg9Ijc4IiB4PSI4OSIgeT0iMjE5LjEyNSI+W1BsYXllciBzZWVuXTwvdGV4dD48cG9seWdvbiBmaWxsPSIjMTgxODE4IiBwb2ludHM9IjY1LDIzOC41NTQ3LDU1LDI0Mi41NTQ3LDY1LDI0Ni41NTQ3LDYxLDI0Mi41NTQ3IiBzdHlsZT0ic3Ryb2tlOiMxODE4MTg7c3Ryb2tlLXdpZHRoOjEuMDsiLz48bGluZSBzdHlsZT0ic3Ryb2tlOiMxODE4MTg7c3Ryb2tlLXdpZHRoOjEuMDsiIHgxPSI1OSIgeDI9IjI3NSIgeTE9IjI0Mi41NTQ3IiB5Mj0iMjQyLjU1NDciLz48dGV4dCBmaWxsPSIjMDAwMDAwIiBmb250LWZhbWlseT0ic2Fucy1zZXJpZiIgZm9udC1zaXplPSIxMyIgbGVuZ3RoQWRqdXN0PSJzcGFjaW5nIiB0ZXh0TGVuZ3RoPSIxMDIiIHg9IjcxIiB5PSIyMzguOTI5NyI+IkRldGVjdCBQbGF5ZXIiPC90ZXh0PjxsaW5lIHN0eWxlPSJzdHJva2U6IzE4MTgxODtzdHJva2Utd2lkdGg6MS4wOyIgeDE9IjI3NiIgeDI9IjMxOCIgeTE9IjI3MC40Njg4IiB5Mj0iMjcwLjQ2ODgiLz48bGluZSBzdHlsZT0ic3Ryb2tlOiMxODE4MTg7c3Ryb2tlLXdpZHRoOjEuMDsiIHgxPSIzMTgiIHgyPSIzMTgiIHkxPSIyNzAuNDY4OCIgeTI9IjI4My40Njg4Ii8+PGxpbmUgc3R5bGU9InN0cm9rZTojMTgxODE4O3N0cm9rZS13aWR0aDoxLjA7IiB4MT0iMjc3IiB4Mj0iMzE4IiB5MT0iMjgzLjQ2ODgiIHkyPSIyODMuNDY4OCIvPjxwb2x5Z29uIGZpbGw9IiMxODE4MTgiIHBvaW50cz0iMjg3LDI3OS40Njg4LDI3NywyODMuNDY4OCwyODcsMjg3LjQ2ODgsMjgzLDI4My40Njg4IiBzdHlsZT0ic3Ryb2tlOiMxODE4MTg7c3Ryb2tlLXdpZHRoOjEuMDsiLz48dGV4dCBmaWxsPSIjMDAwMDAwIiBmb250LWZhbWlseT0ic2Fucy1zZXJpZiIgZm9udC1zaXplPSIxMyIgbGVuZ3RoQWRqdXN0PSJzcGFjaW5nIiB0ZXh0TGVuZ3RoPSIxMDIiIHg9IjI4MyIgeT0iMjY2Ljg0MzgiPiJTdGFydCBDaGFzaW5nIjwvdGV4dD48cG9seWdvbiBmaWxsPSIjMTgxODE4IiBwb2ludHM9IjY1LDMwNy4zODI4LDU1LDMxMS4zODI4LDY1LDMxNS4zODI4LDYxLDMxMS4zODI4IiBzdHlsZT0ic3Ryb2tlOiMxODE4MTg7c3Ryb2tlLXdpZHRoOjEuMDsiLz48bGluZSBzdHlsZT0ic3Ryb2tlOiMxODE4MTg7c3Ryb2tlLXdpZHRoOjEuMDsiIHgxPSI1OSIgeDI9IjI3NSIgeTE9IjMxMS4zODI4IiB5Mj0iMzExLjM4MjgiLz48dGV4dCBmaWxsPSIjMDAwMDAwIiBmb250LWZhbWlseT0ic2Fucy1zZXJpZiIgZm9udC1zaXplPSIxMyIgbGVuZ3RoQWRqdXN0PSJzcGFjaW5nIiB0ZXh0TGVuZ3RoPSIxNDQiIHg9IjcxIiB5PSIzMDcuNzU3OCI+Ik1vdmUgdG93YXJkcyBQbGF5ZXIiPC90ZXh0PjxwYXRoIGQ9Ik0yMCwzMjYuMzgyOCBMODQsMzI2LjM4MjggTDg0LDMzMi4yOTY5IEw3NCwzNDIuMjk2OSBMMjAsMzQyLjI5NjkgTDIwLDMyNi4zODI4ICIgZmlsbD0iI0VFRUVFRSIgc3R5bGU9InN0cm9rZTojMDAwMDAwO3N0cm9rZS13aWR0aDoxLjU7Ii8+PHJlY3QgZmlsbD0ibm9uZSIgaGVpZ2h0PSIyNDEuMzk4NCIgc3R5bGU9InN0cm9rZTojMDAwMDAwO3N0cm9rZS13aWR0aDoxLjU7IiB3aWR0aD0iNDMzIiB4PSIyMCIgeT0iMzI2LjM4MjgiLz48dGV4dCBmaWxsPSIjMDAwMDAwIiBmb250LWZhbWlseT0ic2Fucy1zZXJpZiIgZm9udC1zaXplPSIxMyIgZm9udC13ZWlnaHQ9ImJvbGQiIGxlbmd0aEFkanVzdD0ic3BhY2luZyIgdGV4dExlbmd0aD0iMTkiIHg9IjM1IiB5PSIzMzkuNjcxOSI+YWx0PC90ZXh0Pjx0ZXh0IGZpbGw9IiMwMDAwMDAiIGZvbnQtZmFtaWx5PSJzYW5zLXNlcmlmIiBmb250LXNpemU9IjExIiBmb250LXdlaWdodD0iYm9sZCIgbGVuZ3RoQWRqdXN0PSJzcGFjaW5nIiB0ZXh0TGVuZ3RoPSIxMDIiIHg9Ijk5IiB5PSIzMzguNzgxMyI+W1BsYXllciBpbiByYW5nZV08L3RleHQ+PHBvbHlnb24gZmlsbD0iIzE4MTgxOCIgcG9pbnRzPSI2NSwzNTguMjEwOSw1NSwzNjIuMjEwOSw2NSwzNjYuMjEwOSw2MSwzNjIuMjEwOSIgc3R5bGU9InN0cm9rZTojMTgxODE4O3N0cm9rZS13aWR0aDoxLjA7Ii8+PGxpbmUgc3R5bGU9InN0cm9rZTojMTgxODE4O3N0cm9rZS13aWR0aDoxLjA7IiB4MT0iNTkiIHgyPSIyNzUiIHkxPSIzNjIuMjEwOSIgeTI9IjM2Mi4yMTA5Ii8+PHRleHQgZmlsbD0iIzAwMDAwMCIgZm9udC1mYW1pbHk9InNhbnMtc2VyaWYiIGZvbnQtc2l6ZT0iMTMiIGxlbmd0aEFkanVzdD0ic3BhY2luZyIgdGV4dExlbmd0aD0iMTAyIiB4PSI3MSIgeT0iMzU4LjU4NTkiPiJBdHRhY2sgUGxheWVyIjwvdGV4dD48bGluZSBzdHlsZT0ic3Ryb2tlOiMxODE4MTg7c3Ryb2tlLXdpZHRoOjEuMDsiIHgxPSI1NCIgeDI9Ijk2IiB5MT0iMzkwLjEyNSIgeTI9IjM5MC4xMjUiLz48bGluZSBzdHlsZT0ic3Ryb2tlOiMxODE4MTg7c3Ryb2tlLXdpZHRoOjEuMDsiIHgxPSI5NiIgeDI9Ijk2IiB5MT0iMzkwLjEyNSIgeTI9IjQwMy4xMjUiLz48bGluZSBzdHlsZT0ic3Ryb2tlOiMxODE4MTg7c3Ryb2tlLXdpZHRoOjEuMDsiIHgxPSI1NSIgeDI9Ijk2IiB5MT0iNDAzLjEyNSIgeTI9IjQwMy4xMjUiLz48cG9seWdvbiBmaWxsPSIjMTgxODE4IiBwb2ludHM9IjY1LDM5OS4xMjUsNTUsNDAzLjEyNSw2NSw0MDcuMTI1LDYxLDQwMy4xMjUiIHN0eWxlPSJzdHJva2U6IzE4MTgxODtzdHJva2Utd2lkdGg6MS4wOyIvPjx0ZXh0IGZpbGw9IiMwMDAwMDAiIGZvbnQtZmFtaWx5PSJzYW5zLXNlcmlmIiBmb250LXNpemU9IjEzIiBsZW5ndGhBZGp1c3Q9InNwYWNpbmciIHRleHRMZW5ndGg9Ijg5IiB4PSI2MSIgeT0iMzg2LjUiPiJUYWtlIERhbWFnZSI8L3RleHQ+PHBhdGggZD0iTTI0NSw0MTguMTI1IEwzMDksNDE4LjEyNSBMMzA5LDQyNC4wMzkxIEwyOTksNDM0LjAzOTEgTDI0NSw0MzQuMDM5MSBMMjQ1LDQxOC4xMjUgIiBmaWxsPSIjRUVFRUVFIiBzdHlsZT0ic3Ryb2tlOiMwMDAwMDA7c3Ryb2tlLXdpZHRoOjEuNTsiLz48cmVjdCBmaWxsPSJub25lIiBoZWlnaHQ9Ijk5Ljc0MjIiIHN0eWxlPSJzdHJva2U6IzAwMDAwMDtzdHJva2Utd2lkdGg6MS41OyIgd2lkdGg9IjE5OCIgeD0iMjQ1IiB5PSI0MTguMTI1Ii8+PHRleHQgZmlsbD0iIzAwMDAwMCIgZm9udC1mYW1pbHk9InNhbnMtc2VyaWYiIGZvbnQtc2l6ZT0iMTMiIGZvbnQtd2VpZ2h0PSJib2xkIiBsZW5ndGhBZGp1c3Q9InNwYWNpbmciIHRleHRMZW5ndGg9IjE5IiB4PSIyNjAiIHk9IjQzMS40MTQxIj5hbHQ8L3RleHQ+PHRleHQgZmlsbD0iIzAwMDAwMCIgZm9udC1mYW1pbHk9InNhbnMtc2VyaWYiIGZvbnQtc2l6ZT0iMTEiIGZvbnQtd2VpZ2h0PSJib2xkIiBsZW5ndGhBZGp1c3Q9InNwYWNpbmciIHRleHRMZW5ndGg9Ijc4IiB4PSIzMjQiIHk9IjQzMC41MjM0Ij5bUGxheWVyIGRpZXNdPC90ZXh0PjxsaW5lIHN0eWxlPSJzdHJva2U6IzE4MTgxODtzdHJva2Utd2lkdGg6MS4wOyIgeDE9IjI3NiIgeDI9IjMxOCIgeTE9IjQ1My45NTMxIiB5Mj0iNDUzLjk1MzEiLz48bGluZSBzdHlsZT0ic3Ryb2tlOiMxODE4MTg7c3Ryb2tlLXdpZHRoOjEuMDsiIHgxPSIzMTgiIHgyPSIzMTgiIHkxPSI0NTMuOTUzMSIgeTI9IjQ2Ni45NTMxIi8+PGxpbmUgc3R5bGU9InN0cm9rZTojMTgxODE4O3N0cm9rZS13aWR0aDoxLjA7IiB4MT0iMjc3IiB4Mj0iMzE4IiB5MT0iNDY2Ljk1MzEiIHkyPSI0NjYuOTUzMSIvPjxwb2x5Z29uIGZpbGw9IiMxODE4MTgiIHBvaW50cz0iMjg3LDQ2Mi45NTMxLDI3Nyw0NjYuOTUzMSwyODcsNDcwLjk1MzEsMjgzLDQ2Ni45NTMxIiBzdHlsZT0ic3Ryb2tlOiMxODE4MTg7c3Ryb2tlLXdpZHRoOjEuMDsiLz48dGV4dCBmaWxsPSIjMDAwMDAwIiBmb250LWZhbWlseT0ic2Fucy1zZXJpZiIgZm9udC1zaXplPSIxMyIgbGVuZ3RoQWRqdXN0PSJzcGFjaW5nIiB0ZXh0TGVuZ3RoPSIxNDgiIHg9IjI4MyIgeT0iNDUwLjMyODEiPiJSZXR1cm4gdG8gUGF0cm9sbGluZyI8L3RleHQ+PGxpbmUgc3R5bGU9InN0cm9rZTojMDAwMDAwO3N0cm9rZS13aWR0aDoxLjA7c3Ryb2tlLWRhc2hhcnJheToyLjAsMi4wOyIgeDE9IjI0NSIgeDI9IjQ0MyIgeTE9IjQ3NS45NTMxIiB5Mj0iNDc1Ljk1MzEiLz48bGluZSBzdHlsZT0ic3Ryb2tlOiMxODE4MTg7c3Ryb2tlLXdpZHRoOjEuMDsiIHgxPSIyNzYiIHgyPSIzMTgiIHkxPSI0OTYuODY3MiIgeTI9IjQ5Ni44NjcyIi8+PGxpbmUgc3R5bGU9InN0cm9rZTojMTgxODE4O3N0cm9rZS13aWR0aDoxLjA7IiB4MT0iMzE4IiB4Mj0iMzE4IiB5MT0iNDk2Ljg2NzIiIHkyPSI1MDkuODY3MiIvPjxsaW5lIHN0eWxlPSJzdHJva2U6IzE4MTgxODtzdHJva2Utd2lkdGg6MS4wOyIgeDE9IjI3NyIgeDI9IjMxOCIgeTE9IjUwOS44NjcyIiB5Mj0iNTA5Ljg2NzIiLz48cG9seWdvbiBmaWxsPSIjMTgxODE4IiBwb2ludHM9IjI4Nyw1MDUuODY3MiwyNzcsNTA5Ljg2NzIsMjg3LDUxMy44NjcyLDI4Myw1MDkuODY3MiIgc3R5bGU9InN0cm9rZTojMTgxODE4O3N0cm9rZS13aWR0aDoxLjA7Ii8+PHRleHQgZmlsbD0iIzAwMDAwMCIgZm9udC1mYW1pbHk9InNhbnMtc2VyaWYiIGZvbnQtc2l6ZT0iMTMiIGxlbmd0aEFkanVzdD0ic3BhY2luZyIgdGV4dExlbmd0aD0iMTIwIiB4PSIyODMiIHk9IjQ5My4yNDIyIj4iV2FpdCBmb3IgYSB3aGlsZSI8L3RleHQ+PGxpbmUgc3R5bGU9InN0cm9rZTojMDAwMDAwO3N0cm9rZS13aWR0aDoxLjA7c3Ryb2tlLWRhc2hhcnJheToyLjAsMi4wOyIgeDE9IjIwIiB4Mj0iNDUzIiB5MT0iNTI1Ljg2NzIiIHkyPSI1MjUuODY3MiIvPjxsaW5lIHN0eWxlPSJzdHJva2U6IzE4MTgxODtzdHJva2Utd2lkdGg6MS4wOyIgeDE9IjI3NiIgeDI9IjMxOCIgeTE9IjU0Ni43ODEzIiB5Mj0iNTQ2Ljc4MTMiLz48bGluZSBzdHlsZT0ic3Ryb2tlOiMxODE4MTg7c3Ryb2tlLXdpZHRoOjEuMDsiIHgxPSIzMTgiIHgyPSIzMTgiIHkxPSI1NDYuNzgxMyIgeTI9IjU1OS43ODEzIi8+PGxpbmUgc3R5bGU9InN0cm9rZTojMTgxODE4O3N0cm9rZS13aWR0aDoxLjA7IiB4MT0iMjc3IiB4Mj0iMzE4IiB5MT0iNTU5Ljc4MTMiIHkyPSI1NTkuNzgxMyIvPjxwb2x5Z29uIGZpbGw9IiMxODE4MTgiIHBvaW50cz0iMjg3LDU1NS43ODEzLDI3Nyw1NTkuNzgxMywyODcsNTYzLjc4MTMsMjgzLDU1OS43ODEzIiBzdHlsZT0ic3Ryb2tlOiMxODE4MTg7c3Ryb2tlLXdpZHRoOjEuMDsiLz48dGV4dCBmaWxsPSIjMDAwMDAwIiBmb250LWZhbWlseT0ic2Fucy1zZXJpZiIgZm9udC1zaXplPSIxMyIgbGVuZ3RoQWRqdXN0PSJzcGFjaW5nIiB0ZXh0TGVuZ3RoPSIxMjMiIHg9IjI4MyIgeT0iNTQzLjE1NjMiPiJDb250aW51ZSBDaGFzaW5nIjwvdGV4dD48bGluZSBzdHlsZT0ic3Ryb2tlOiMwMDAwMDA7c3Ryb2tlLXdpZHRoOjEuMDtzdHJva2UtZGFzaGFycmF5OjIuMCwyLjA7IiB4MT0iMTAiIHgyPSI0NjMiIHkxPSI1NzUuNzgxMyIgeTI9IjU3NS43ODEzIi8+PGxpbmUgc3R5bGU9InN0cm9rZTojMTgxODE4O3N0cm9rZS13aWR0aDoxLjA7IiB4MT0iMjc2IiB4Mj0iMzE4IiB5MT0iNTk2LjY5NTMiIHkyPSI1OTYuNjk1MyIvPjxsaW5lIHN0eWxlPSJzdHJva2U6IzE4MTgxODtzdHJva2Utd2lkdGg6MS4wOyIgeDE9IjMxOCIgeDI9IjMxOCIgeTE9IjU5Ni42OTUzIiB5Mj0iNjA5LjY5NTMiLz48bGluZSBzdHlsZT0ic3Ryb2tlOiMxODE4MTg7c3Ryb2tlLXdpZHRoOjEuMDsiIHgxPSIyNzciIHgyPSIzMTgiIHkxPSI2MDkuNjk1MyIgeTI9IjYwOS42OTUzIi8+PHBvbHlnb24gZmlsbD0iIzE4MTgxOCIgcG9pbnRzPSIyODcsNjA1LjY5NTMsMjc3LDYwOS42OTUzLDI4Nyw2MTMuNjk1MywyODMsNjA5LjY5NTMiIHN0eWxlPSJzdHJva2U6IzE4MTgxODtzdHJva2Utd2lkdGg6MS4wOyIvPjx0ZXh0IGZpbGw9IiMwMDAwMDAiIGZvbnQtZmFtaWx5PSJzYW5zLXNlcmlmIiBmb250LXNpemU9IjEzIiBsZW5ndGhBZGp1c3Q9InNwYWNpbmciIHRleHRMZW5ndGg9IjE0MSIgeD0iMjgzIiB5PSI1OTMuMDcwMyI+IkNvbnRpbnVlIFBhdHJvbGxpbmciPC90ZXh0PjwhLS1TUkM9W1JQMm5RV0NuMzhQdEZ1Tm1yMHZ6V0d3NWE3SmVLMFhqOEZGRmROZW5TTUltVEdydi1fZnl4aUtYc01wZi13R1ZlVENHUVVqbnVNWEdGZ2lGR1lCeEJkb3dNNkZjN2hzeUpPck5pZl9YYm1hblpEQkpLc3JjcUdMdmpZT1oyeFk1bmsyemEtNnNfanIxdzZWUFFXc3lyWlNiUFo1NENydmhNVGNtU2dVQnkwX0tVT2dlajN1V2JMTnRUYWNpdU9wT2ZzUDZpek85SFNaMGtOZ2xockpIN0hrSHc3Z0pBeFIzYU1jMzRtUVVlTVAteHBZTHNjdG9Cek9uSWV2NnhRcWNZZHRZMXk4VUppbGZHRVUzeXRLSElzeVFmSE5NR1RKOW9FcnY5aHAyM3o0c0lzUl8wMDAwXS0tPjwvZz48L3N2Zz4=;" parent="1" vertex="1">
            <mxGeometry x="-490" y="220" width="470" height="714" as="geometry" />
          </mxCell>
        </UserObject>
        <UserObject label="" plantUmlData="{&quot;data&quot;:&quot;@startuml\nactor Player\nactor AI as \&quot;Enemy\&quot;\nobject PatrolArea\n\nPlayer -&gt; AI : \&quot;Move around\&quot;\nAI -&gt; PatrolArea : \&quot;Scan for Player\&quot;\nAI -&gt; AI : \&quot;Patrolling\&quot;\nAI -&gt; AI : \&quot;Scan for Player\&quot;\nalt Player Seen\n  AI -&gt; Player : \&quot;Detect Player\&quot;\n  AI -&gt; AI : \&quot;Start Chasing\&quot;\n  AI -&gt; Player : \&quot;Move towards Player\&quot;\n  alt Player in Range\n    AI -&gt; Player : \&quot;Attack Player\&quot;\n    Player -&gt; Player : \&quot;Take Damage\&quot;\n    alt Player Dies\n      AI -&gt; AI : \&quot;Return to Patrolling\&quot;\n    else\n      AI -&gt; AI : \&quot;Wait for a while\&quot;\n    end\n  else\n    AI -&gt; AI : \&quot;Continue Chasing\&quot;\n  end\nelse\n  AI -&gt; AI : \&quot;Continue Patrolling\&quot;\nend\n@enduml\n&quot;,&quot;format&quot;:&quot;svg&quot;}" id="AJvMjrhF3EflR_rfGmF5-16">
          <mxCell style="shape=image;noLabel=1;verticalAlign=top;aspect=fixed;imageAspect=0;image=data:image/svg+xml,PD94bWwgdmVyc2lvbj0iMS4wIiBlbmNvZGluZz0idXMtYXNjaWkiIHN0YW5kYWxvbmU9Im5vIj8+PHN2ZyB4bWxucz0iaHR0cDovL3d3dy53My5vcmcvMjAwMC9zdmciIHhtbG5zOnhsaW5rPSJodHRwOi8vd3d3LnczLm9yZy8xOTk5L3hsaW5rIiBjb250ZW50U3R5bGVUeXBlPSJ0ZXh0L2NzcyIgaGVpZ2h0PSIxODFweCIgcHJlc2VydmVBc3BlY3RSYXRpbz0ibm9uZSIgc3R5bGU9IndpZHRoOjM5NHB4O2hlaWdodDoxODFweDtiYWNrZ3JvdW5kOiMwMDAwMDA7IiB2ZXJzaW9uPSIxLjEiIHZpZXdCb3g9IjAgMCAzOTQgMTgxIiB3aWR0aD0iMzk0cHgiIHpvb21BbmRQYW49Im1hZ25pZnkiPjxkZWZzLz48Zz48cmVjdCBmaWxsPSIjMTYwRTI0IiBoZWlnaHQ9IjEiIHN0eWxlPSJzdHJva2U6IzE2MEUyNDtzdHJva2Utd2lkdGg6MS4wOyIgd2lkdGg9IjEiIHg9IjAiIHk9IjAiLz48dGV4dCBmaWxsPSIjMzNGRjAyIiBmb250LWZhbWlseT0ic2Fucy1zZXJpZiIgZm9udC1zaXplPSIxMiIgZm9udC1zdHlsZT0iaXRhbGljIiBmb250LXdlaWdodD0iYm9sZCIgbGVuZ3RoQWRqdXN0PSJzcGFjaW5nIiB0ZXh0TGVuZ3RoPSIxMDciIHg9IjUiIHk9IjE3Ij5QbGFudFVNTCAxLjIwMjQuNDwvdGV4dD48dGV4dCBmaWxsPSIjMzNGRjAyIiBmb250LWZhbWlseT0ic2Fucy1zZXJpZiIgZm9udC1zaXplPSIxMiIgZm9udC1zdHlsZT0iaXRhbGljIiBmb250LXdlaWdodD0iYm9sZCIgbGVuZ3RoQWRqdXN0PSJzcGFjaW5nIiB0ZXh0TGVuZ3RoPSI2IiB4PSI1IiB5PSIyOS44NDM4Ij4mIzE2MDs8L3RleHQ+PHRleHQgZmlsbD0iIzMzRkYwMiIgZm9udC1mYW1pbHk9InNhbnMtc2VyaWYiIGZvbnQtc2l6ZT0iMTIiIGZvbnQtc3R5bGU9Iml0YWxpYyIgZm9udC13ZWlnaHQ9ImJvbGQiIGxlbmd0aEFkanVzdD0ic3BhY2luZyIgdGV4dExlbmd0aD0iMzgwIiB4PSI1IiB5PSI0Mi42ODc1Ij4mbHQ7YiZndDtUaGlzIHZlcnNpb24gb2YgUGxhbnRVTUwgaXMgMjE1IGRheXMgb2xkLCBzbyB5b3Ugc2hvdWxkPC90ZXh0Pjx0ZXh0IGZpbGw9IiMzM0ZGMDIiIGZvbnQtZmFtaWx5PSJzYW5zLXNlcmlmIiBmb250LXNpemU9IjEyIiBmb250LXN0eWxlPSJpdGFsaWMiIGZvbnQtd2VpZ2h0PSJib2xkIiBsZW5ndGhBZGp1c3Q9InNwYWNpbmciIHRleHRMZW5ndGg9IjM3MCIgeD0iNSIgeT0iNTUuNTMxMyI+Jmx0O2ImZ3Q7Y29uc2lkZXIgdXBncmFkaW5nIGZyb20gaHR0cHM6Ly9wbGFudHVtbC5jb20vZG93bmxvYWQ8L3RleHQ+PHJlY3QgZmlsbD0iIzMzRkYwMiIgaGVpZ2h0PSIxOS45ODQ0IiBzdHlsZT0ic3Ryb2tlOiMzM0ZGMDI7c3Ryb2tlLXdpZHRoOjEuMDsiIHdpZHRoPSIxNjYiIHg9IjUiIHk9IjY0LjM3NSIvPjx0ZXh0IGZpbGw9IiMwMDAwMDAiIGZvbnQtZmFtaWx5PSJzYW5zLXNlcmlmIiBmb250LXNpemU9IjE0IiBmb250LXdlaWdodD0iYm9sZCIgbGVuZ3RoQWRqdXN0PSJzcGFjaW5nIiB0ZXh0TGVuZ3RoPSIxNjQiIHg9IjYiIHk9Ijc5LjM3NSI+W0Zyb20gc3RyaW5nIChsaW5lIDQpIF08L3RleHQ+PHRleHQgZmlsbD0iIzMzRkYwMiIgZm9udC1mYW1pbHk9InNhbnMtc2VyaWYiIGZvbnQtc2l6ZT0iMTQiIGZvbnQtd2VpZ2h0PSJib2xkIiBsZW5ndGhBZGp1c3Q9InNwYWNpbmciIHRleHRMZW5ndGg9IjciIHg9IjUiIHk9Ijk4LjM1OTQiPiYjMTYwOzwvdGV4dD48dGV4dCBmaWxsPSIjMzNGRjAyIiBmb250LWZhbWlseT0ic2Fucy1zZXJpZiIgZm9udC1zaXplPSIxNCIgZm9udC13ZWlnaHQ9ImJvbGQiIGxlbmd0aEFkanVzdD0ic3BhY2luZyIgdGV4dExlbmd0aD0iNjQiIHg9IjUiIHk9IjExMy4zNDM4Ij5Ac3RhcnR1bWw8L3RleHQ+PHRleHQgZmlsbD0iIzMzRkYwMiIgZm9udC1mYW1pbHk9InNhbnMtc2VyaWYiIGZvbnQtc2l6ZT0iMTQiIGZvbnQtd2VpZ2h0PSJib2xkIiBsZW5ndGhBZGp1c3Q9InNwYWNpbmciIHRleHRMZW5ndGg9Ijg0IiB4PSI1IiB5PSIxMjguMzI4MSI+YWN0b3IgUGxheWVyPC90ZXh0Pjx0ZXh0IGZpbGw9IiMzM0ZGMDIiIGZvbnQtZmFtaWx5PSJzYW5zLXNlcmlmIiBmb250LXNpemU9IjE0IiBmb250LXdlaWdodD0iYm9sZCIgbGVuZ3RoQWRqdXN0PSJzcGFjaW5nIiB0ZXh0TGVuZ3RoPSIxMzYiIHg9IjUiIHk9IjE0My4zMTI1Ij5hY3RvciBBSSBhcyAiRW5lbXkiPC90ZXh0Pjx0ZXh0IGZpbGw9IiMzM0ZGMDIiIGZvbnQtZmFtaWx5PSJzYW5zLXNlcmlmIiBmb250LXNpemU9IjE0IiBmb250LXdlaWdodD0iYm9sZCIgbGVuZ3RoQWRqdXN0PSJzcGFjaW5nIiB0ZXh0LWRlY29yYXRpb249IndhdnkgdW5kZXJsaW5lIiB0ZXh0TGVuZ3RoPSIxMTkiIHg9IjUiIHk9IjE1OC4yOTY5Ij5vYmplY3QgUGF0cm9sQXJlYTwvdGV4dD48dGV4dCBmaWxsPSIjRkYwMDAwIiBmb250LWZhbWlseT0ic2Fucy1zZXJpZiIgZm9udC1zaXplPSIxNCIgZm9udC13ZWlnaHQ9ImJvbGQiIGxlbmd0aEFkanVzdD0ic3BhY2luZyIgdGV4dExlbmd0aD0iOTEiIHg9IjEyIiB5PSIxNzMuMjgxMyI+U3ludGF4IEVycm9yPzwvdGV4dD48IS0tU1JDPVtSUDBuUmlDbTM0THRkT0JtZFdqcUE2MzQ3SmVLMjk4MmRMY1JUVEdlNTIzSDNOQnhvOTlJQ3Qwcy1faXpWZmhPWW0tbVN0WWJPMzJfakUtMDRQZXRmbEVyQ1Z4eGJ0ZzE3S2htaFdzNG5YR1FEZ3lwLVdCRFhfeVptRTBkN1hnSmVsSFhtTVZXcTJGM3B0X0Y3SWZzR1B0YnlKNVZJVVlhRmlFMVkwcjB4SWZQS1pnSWw2aUx4YTJUOW5XNGphVUNrTWZqdnp5R1Z5NG1IM0wzckxnNkZWOThBTHRoaEdaczlvSzJCOFRRaTR5eTROSHVuZjRBZkVQdGJjQkU3WlZWYXFvMXFzZ1dScExKdjI4ejRSeEdJWnVUbWtMZU5JcVk3ZW5JakIzckI5T2Rxa1VQeUdlX0hWS2tZUnExXS0tPjwvZz48L3N2Zz4=;" parent="1" vertex="1">
            <mxGeometry x="170" y="610" width="394" height="181" as="geometry" />
          </mxCell>
        </UserObject>
      </root>
    </mxGraphModel>
  </diagram>
</mxfile>
